<?xml version="1.0" encoding="UTF-8"?>
<svg version="1.1" xmlns="http://www.w3.org/2000/svg" width="512" height="512">
<path d="M0 0 C5.11910216 4.00372055 9.22426601 8.93882979 13.40234375 13.87890625 C14.60859237 15.25573548 15.81662177 16.63100904 17.02734375 18.00390625 C17.56617188 18.62523438 18.105 19.2465625 18.66015625 19.88671875 C20.71734774 22.2391126 22.8083129 24.55925591 24.90234375 26.87890625 C29.70142167 32.20225318 34.44312325 37.56753964 39.08203125 43.03125 C44.67676114 49.61208804 50.35969487 56.07656523 56.24609375 62.3984375 C59.45258051 65.8424418 62.58959232 69.33220472 65.66796875 72.890625 C69.1940144 76.93287103 72.80598653 80.8992638 76.40234375 84.87890625 C77.25469604 84.63551514 77.25469604 84.63551514 78.12426758 84.38720703 C80.44560893 83.86925261 82.47656644 83.7496201 84.8515625 83.74609375 C85.70041016 83.74480469 86.54925781 83.74351563 87.42382812 83.7421875 C88.30361328 83.74605469 89.18339844 83.74992187 90.08984375 83.75390625 C90.95029297 83.75003906 91.81074219 83.74617188 92.69726562 83.7421875 C96.98324398 83.74864715 101.06110142 83.93998608 105.30078125 84.5859375 C108.63951653 85.01480179 108.63951653 85.01480179 111.6796875 83.5859375 C112.50146484 82.64814453 112.50146484 82.64814453 113.33984375 81.69140625 C119.62115566 75.39753172 128.10638534 72.85257613 136.90234375 72.56640625 C143.43143994 72.60567901 149.29515718 74.74610196 155.40234375 76.87890625 C156.39234375 77.20890625 157.38234375 77.53890625 158.40234375 77.87890625 C160.06069911 76.66872436 160.06069911 76.66872436 161.71484375 74.87890625 C173.10779853 64.38982058 186.95769075 61.19049751 202.03515625 61.5546875 C208.48007686 61.89127767 214.33760611 63.71237385 220.40234375 65.87890625 C221.27503906 66.18699219 222.14773438 66.49507813 223.046875 66.8125 C224.84372588 67.47019148 226.62576452 68.16827456 228.40234375 68.87890625 C228.65886719 68.29109375 228.91539062 67.70328125 229.1796875 67.09765625 C233.28918384 59.64016769 241.41823471 55.82146016 249.1953125 53.296875 C260.20057009 51.21269347 271.3313831 52.44552616 280.86328125 58.421875 C290.17133029 65.17871459 294.40484833 73.26608655 298.40234375 83.87890625 C299.40652344 83.96527344 300.41070312 84.05164063 301.4453125 84.140625 C315.93562734 85.55527027 326.93007788 89.6137296 338.40234375 98.87890625 C342.21863207 97.33317849 344.37260118 94.9911938 347.08984375 91.94140625 C347.52844727 91.45124023 347.96705078 90.96107422 348.41894531 90.45605469 C351.25974962 87.25477341 353.9740863 83.96796741 356.65234375 80.62890625 C361.53481034 74.57360516 366.85440869 68.96696415 372.18359375 63.30859375 C376.13550392 59.11081703 379.92580148 54.7960012 383.65673828 50.40136719 C390.19638712 42.70098178 396.85325592 35.15481709 403.734375 27.7578125 C408.04081428 23.11089339 412.19468916 18.35650993 416.2109375 13.45703125 C427.45229199 -0.13774316 427.45229199 -0.13774316 436.40234375 -3.12109375 C445.6542279 -3.9061021 453.68639066 -3.85748584 461.40234375 1.87890625 C466.72704369 6.6484779 470.0202837 11.9686867 470.71875 19.1171875 C471.06113641 29.3998244 469.11485766 36.11035488 462.40234375 43.87890625 C460.83532956 45.23554676 459.22754335 46.54599412 457.58984375 47.81640625 C452.76035431 51.68129257 448.21580495 55.76201331 443.71484375 60.00390625 C438.22017724 65.17811858 432.67935471 70.24782854 426.92480469 75.13330078 C419.22441928 81.67294962 411.67825459 88.32981842 404.28125 95.2109375 C399.58841443 99.55992894 394.75970854 103.73233046 389.875 107.86328125 C389.24263428 108.40017578 388.61026855 108.93707031 387.95874023 109.49023438 C386.69163618 110.56529472 385.42170265 111.63703087 384.14868164 112.70507812 C381.47573511 114.9735244 379.35890967 116.94405737 377.40234375 119.87890625 C377.74007813 120.53117187 378.0778125 121.1834375 378.42578125 121.85546875 C378.87179687 122.72945313 379.3178125 123.6034375 379.77734375 124.50390625 C380.21820313 125.36242187 380.6590625 126.2209375 381.11328125 127.10546875 C382.44844055 129.97808421 383.45464906 132.85868298 384.40234375 135.87890625 C386.03429687 136.00845703 386.03429687 136.00845703 387.69921875 136.140625 C404.11371201 137.63217028 417.54919271 143.02440018 429.19140625 155.0546875 C437.21491109 165.3037935 441.84023895 177.38172117 441.52734375 190.37890625 C441.51832031 191.1059375 441.50929688 191.83296875 441.5 192.58203125 C441.47676616 194.34780345 441.44091058 196.11340239 441.40234375 197.87890625 C441.95921875 197.9046875 442.51609375 197.93046875 443.08984375 197.95703125 C452.29451439 198.64116218 458.35318198 201.93719072 464.63671875 208.703125 C471.2547901 216.85858018 471.40433507 225.79701423 470.40234375 235.87890625 C468.57097697 243.50779508 463.53579118 250.07927715 457.078125 254.453125 C451.25589092 257.64301463 445.97836844 258.63189696 439.40234375 258.87890625 C439.43062256 259.76811768 439.43062256 259.76811768 439.45947266 260.67529297 C439.57647726 267.2802671 438.9048949 273.50317351 437.77734375 280.00390625 C437.51002441 281.55936157 437.51002441 281.55936157 437.23730469 283.14624023 C433.11518791 306.26252708 426.51224481 328.61142493 417.08984375 350.12890625 C416.7645166 350.87382324 416.43918945 351.61874023 416.10400391 352.38623047 C414.57500931 355.75478428 413.21703504 358.4595215 410.40234375 360.87890625 C407.67726577 361.26969181 405.17112419 361.01507578 402.40234375 360.87890625 C402.09296875 362.02359375 402.09296875 362.02359375 401.77734375 363.19140625 C399.84339984 368.37789219 397.12382915 373.06923709 394.40234375 377.87890625 C395.06234375 378.86890625 395.72234375 379.85890625 396.40234375 380.87890625 C397.10675192 386.73037607 395.60539117 389.95279389 392.08984375 394.44140625 C391.6397998 395.04073975 391.18975586 395.64007324 390.72607422 396.25756836 C389.30091655 398.14424082 387.85236888 400.01130905 386.40234375 401.87890625 C385.50421813 403.06565752 384.60706326 404.25314415 383.7109375 405.44140625 C373.31018181 419.0954879 361.30242316 431.1205158 349.12158203 443.17578125 C346.87395559 445.40234217 344.63730442 447.6396393 342.40234375 449.87890625 C343.20671875 449.89953125 344.01109375 449.92015625 344.83984375 449.94140625 C352.1588948 451.86747232 357.03187951 456.77427386 360.90234375 463.12890625 C365.08744702 470.61559099 365.50056809 478.469134 364.40234375 486.87890625 C361.73425769 495.44536826 357.23036581 501.59220607 349.45037156 505.97971666 C343.41877169 508.90573067 338.32895885 509.45254257 331.68205261 509.40029907 C330.63744017 509.40795017 329.59282774 509.41560126 328.51656038 509.42348421 C325.03451402 509.44403559 321.55313397 509.4361811 318.07104492 509.42822266 C315.56704603 509.43692171 313.06305246 509.44728962 310.55906677 509.459198 C304.47415335 509.48317423 298.38949939 509.4882869 292.30456253 509.48359747 C287.35539411 509.48002377 282.40627912 509.48354611 277.45711708 509.49204636 C276.39840449 509.49383192 276.39840449 509.49383192 275.31830377 509.49565356 C273.88419434 509.49807721 272.45008492 509.50050547 271.01597551 509.50293832 C257.58146458 509.52466668 244.14705418 509.52037533 230.71253762 509.50816862 C218.44115599 509.49783454 206.17009208 509.52033358 193.89877328 509.55836506 C181.27842189 509.59717635 168.65822061 509.61362422 156.03780919 509.60611856 C148.96049084 509.60230238 141.88344278 509.60719201 134.80617332 509.63554764 C128.14846967 509.66195369 121.4915027 509.65678221 114.83376503 509.63072586 C112.39577137 509.62600302 109.95773278 509.63143261 107.51979065 509.64797211 C82.20069396 509.80730427 82.20069396 509.80730427 72.44275188 501.13791847 C70.82432409 499.48681121 69.62878084 497.83633234 68.40234375 495.87890625 C67.78746094 494.94691406 67.78746094 494.94691406 67.16015625 493.99609375 C62.98040914 486.41489727 63.03264845 476.36538235 65.09765625 468.09375 C68.40954554 459.98101278 73.72780814 454.82153246 81.3515625 450.7265625 C83.40234375 449.87890625 83.40234375 449.87890625 86.40234375 449.87890625 C82.94339341 446.41292235 79.46694905 442.96568844 75.98046875 439.52734375 C74.40805306 437.96971833 72.83662409 436.41110493 71.265625 434.85205078 C70.19908792 433.79552055 69.13075623 432.74079853 68.06054688 431.68798828 C61.02240748 424.76077135 54.49455717 417.67367299 48.40234375 409.87890625 C47.87092773 409.21197754 47.33951172 408.54504883 46.79199219 407.85791016 C23.87431731 378.90311834 7.27566481 345.42286207 -2.59765625 309.87890625 C-2.81760254 309.09225586 -3.03754883 308.30560547 -3.26416016 307.49511719 C-7.5374863 291.85029145 -9.61217311 275.94296364 -11.59765625 259.87890625 C-12.40734863 259.69424805 -13.21704102 259.50958984 -14.05126953 259.31933594 C-15.12103027 259.06571289 -16.19079102 258.81208984 -17.29296875 258.55078125 C-18.87875732 258.18098145 -18.87875732 258.18098145 -20.49658203 257.80371094 C-29.58155754 255.0943827 -36.02781707 248.59027808 -40.47265625 240.44140625 C-43.05954228 232.44699341 -43.07579086 221.94688282 -39.53515625 214.31640625 C-35.26378559 207.1774581 -29.59862838 201.54589696 -21.59765625 198.87890625 C-18.59906575 198.32776345 -15.64185524 198.01984139 -12.59765625 197.87890625 C-12.66726562 196.73228516 -12.66726562 196.73228516 -12.73828125 195.5625 C-13.32940205 178.01887916 -7.14550073 162.00145679 4.40234375 148.87890625 C5.046875 148.12867188 5.69140625 147.3784375 6.35546875 146.60546875 C14.03559244 138.2711123 23.91232218 132.97932236 34.40234375 128.87890625 C35.39234375 128.87890625 36.38234375 128.87890625 37.40234375 128.87890625 C37.51191406 128.24984375 37.62148437 127.62078125 37.734375 126.97265625 C37.89292969 126.11671875 38.05148438 125.26078125 38.21484375 124.37890625 C38.44107422 123.1259375 38.44107422 123.1259375 38.671875 121.84765625 C39.60780667 118.0438698 40.97918348 114.52843506 42.40234375 110.87890625 C32.97755696 102.11481042 32.97755696 102.11481042 23.34765625 93.578125 C21.06569085 91.58484197 18.83005801 89.54397598 16.58984375 87.50390625 C13.21293393 84.45031758 9.77017243 81.5346142 6.21484375 78.69140625 C0.14561285 73.78601934 -5.48563563 68.44938359 -11.1640625 63.1015625 C-15.89157866 58.6510145 -20.73492933 54.37693158 -25.7890625 50.30078125 C-32.7946698 44.59998554 -38.63185611 39.77630667 -41.59765625 30.87890625 C-42.3826646 21.6270221 -42.33404834 13.59485934 -36.59765625 5.87890625 C-27.40875954 -4.379482 -12.13361802 -7.08635595 0 0 Z " fill="#020202" transform="translate(41.59765625,3.12109375)"/>
<path d="M0 0 C1.16150986 -0.00397774 1.16150986 -0.00397774 2.34648457 -0.00803584 C4.96261144 -0.01574557 7.5786915 -0.01628865 10.19482899 -0.01688576 C12.0808761 -0.02089927 13.96692235 -0.02533731 15.85296756 -0.03016531 C21.05266478 -0.04214894 26.25235272 -0.0477834 31.45206106 -0.05234647 C37.05344687 -0.05829573 42.65482153 -0.06990721 48.25619984 -0.08063698 C61.79162357 -0.10517562 75.32705101 -0.11978983 88.86249015 -0.13269705 C92.68386426 -0.13640777 96.50523801 -0.14038109 100.32661176 -0.14444971 C124.04430362 -0.16968386 147.76199605 -0.19175847 171.47969818 -0.20417786 C176.97513996 -0.20709921 182.47058172 -0.21006673 187.96602345 -0.21308327 C188.64876667 -0.21345418 189.33150989 -0.21382509 190.0349423 -0.21420723 C212.17284258 -0.22636369 234.31066337 -0.25730936 256.44852631 -0.29900479 C279.8499077 -0.34299965 303.2512279 -0.36871119 326.65265685 -0.37409842 C339.41068264 -0.37751564 352.16858302 -0.38930761 364.92656994 -0.42220116 C375.78999934 -0.45016373 386.65327763 -0.46121761 397.51674023 -0.4500057 C403.06102745 -0.44480948 408.60499805 -0.44776862 414.14923954 -0.47247124 C419.22419362 -0.49489453 424.29860234 -0.49427761 429.37356553 -0.47526737 C431.21008725 -0.47245765 433.04664541 -0.47811956 434.88310834 -0.4930803 C451.47599561 -0.61999574 451.47599561 -0.61999574 457.1506961 3.78998125 C460.65134894 7.28358472 462.70079596 10.15683676 462.93794727 15.13701439 C462.63811172 20.374142 460.86168577 23.87786878 457.00044727 27.44951439 C453.05999649 30.10931867 450.10533148 30.26244168 445.45775414 30.26450634 C443.55056063 30.26901781 443.55056063 30.26901781 441.60483795 30.27362043 C440.1858094 30.27193275 438.76678093 30.27016169 437.34775257 30.26831627 C435.84658629 30.27001774 434.34542045 30.27216712 432.84425539 30.27472752 C429.57350293 30.27933154 426.30276941 30.28074402 423.03201389 30.27976227 C417.71098299 30.27817206 412.38997095 30.28336601 407.06894398 30.28938866 C399.34403012 30.29750762 391.61911957 30.30244749 383.89420223 30.30567932 C371.69005533 30.31117032 359.48593647 30.32806155 347.28180408 30.3470211 C343.10891156 30.35337802 338.93601896 30.35968641 334.76312637 30.36599827 C333.72024478 30.36758203 332.67736319 30.36916579 331.60287913 30.37079755 C319.72734721 30.38874003 307.85181332 30.40496416 295.97627735 30.41997337 C294.34752031 30.42203718 294.34752031 30.42203718 292.68585908 30.42414268 C275.08040188 30.44608375 257.47495187 30.45683148 239.86948342 30.46434412 C221.80721855 30.47240719 203.74501551 30.49567063 185.68278593 30.53229779 C174.53425926 30.55435674 163.38585959 30.5639771 152.23731219 30.55779745 C144.60153042 30.55462968 136.96585733 30.56590774 129.33010919 30.58869187 C124.92051008 30.6013948 120.51115301 30.60748735 116.10154438 30.59627533 C112.06797396 30.58615087 108.03487468 30.59426392 104.00136023 30.61713829 C102.53908074 30.62215684 101.07675939 30.62035879 99.61449993 30.61120562 C97.63268134 30.5997717 95.65076153 30.61515187 93.66898155 30.63199902 C92.0150808 30.63346423 92.0150808 30.63346423 90.32776791 30.63495904 C86.81170669 31.25931601 85.59278676 32.27847555 83.50044727 35.13701439 C83.64326235 40.19394338 83.64326235 40.19394338 86.50044727 44.13701439 C89.07482234 44.44540946 89.07482234 44.44540946 92.13453579 44.39872742 C93.34028936 44.40619291 94.54604293 44.4136584 95.78833449 44.42135012 C97.13838673 44.41957306 98.48843874 44.41761212 99.83849049 44.41548729 C101.26327597 44.42048599 102.6880586 44.42636053 104.1128372 44.43304002 C108.04187586 44.44890564 111.97084315 44.45227429 115.89990997 44.45368862 C120.13170075 44.45737128 124.36345185 44.472521 128.59521961 44.48630333 C135.93164247 44.50861579 143.26805129 44.52360505 150.60450077 44.53367043 C161.21187062 44.54823391 171.81919157 44.57376409 182.42653279 44.60200171 C199.63475178 44.6475122 216.84297778 44.68410936 234.05122852 44.71513939 C250.77096764 44.74530753 267.49068956 44.77964978 284.21040821 44.81963158 C285.24039624 44.82209313 286.27038427 44.82455467 287.33158405 44.82709081 C292.49854753 44.83946508 297.66551081 44.85192168 302.83247399 44.86441922 C345.72177445 44.96805072 388.61109627 45.05723291 431.50044727 45.13701439 C431.35537424 47.17774234 431.20681746 49.21822277 431.05684376 51.25859642 C430.97449986 52.39491508 430.89215595 53.53123375 430.80731678 54.70198631 C428.35783346 82.12095032 419.82302102 110.26684909 407.61763477 134.86748314 C406.28500921 138.7675097 406.5021389 141.16801169 407.50044727 145.13701439 C408.16044727 145.79701439 408.82044727 146.45701439 409.50044727 147.13701439 C409.04095013 153.77026806 404.67343738 160.14960653 400.50044727 165.13701439 C397.47862084 166.11706621 395.73006455 165.62145698 392.50044727 165.13701439 C388.88134133 168.03521191 386.42821729 171.91474346 383.81294727 175.69951439 C370.03459563 195.25989823 353.32173942 213.33821476 334.50044727 228.13701439 C333.91368434 228.77734832 333.32692141 229.41768225 332.72237778 230.07742023 C325.81809053 236.89991673 319.50727152 237.17449024 310.30540943 237.2323513 C308.413466 237.21839479 306.52152862 237.20359631 304.62959766 237.18803978 C302.61641639 237.20053148 300.6032537 237.21640465 298.59012318 237.2353878 C293.14349461 237.27600165 287.69805749 237.26614591 282.25136209 237.24454999 C277.69621666 237.23132682 273.14128432 237.24348749 268.58614725 237.25575536 C257.83642833 237.28453686 247.0872812 237.27302961 236.33760548 237.23491478 C225.2649449 237.19623075 214.19365499 237.21911204 203.12109095 237.27344328 C193.59711868 237.31835634 184.07356577 237.32810427 174.54950613 237.30917352 C168.86879549 237.29803442 163.18882237 237.29929142 157.50818539 237.33310699 C152.16491783 237.36311977 146.82351768 237.34890043 141.48039532 237.30133057 C139.52576961 237.29107463 137.57099342 237.29595723 135.61645985 237.31752968 C119.05220901 237.48483091 119.05220901 237.48483091 111.97162342 231.74686241 C110.45018119 230.24098368 108.95499183 228.70760579 107.50044727 227.13701439 C106.33767991 226.14801934 105.16206759 225.17336713 103.96138477 224.23076439 C90.66619479 213.13284816 77.95578009 200.976008 67.50044727 187.13701439 C67.00544727 186.50198997 66.51044727 185.86696556 66.00044727 185.21269798 C34.74334862 145.08160582 14.78502189 96.02981693 11.50044727 45.13701439 C12.08260502 45.13336876 12.66476276 45.12972313 13.26456165 45.12596703 C19.31552233 45.08420548 25.36571998 45.01490538 31.41621876 44.92949486 C33.67525577 44.90124269 35.93439241 44.88004939 38.19356251 44.8660183 C41.43830503 44.84464787 44.6818442 44.79802707 47.92622852 44.74638939 C48.93881229 44.74516075 49.95139606 44.74393211 50.99466419 44.74266624 C52.40578732 44.7130883 52.40578732 44.7130883 53.84541798 44.68291283 C54.67370609 44.67403038 55.50199421 44.66514793 56.35538197 44.65599632 C58.65391875 44.29818645 58.65391875 44.29818645 60.29529285 42.32945824 C62.13375889 38.98487975 61.49699126 36.72457275 60.50044727 33.13701439 C57.20321211 30.75987011 54.04962986 30.88600246 50.0829668 30.8816433 C48.78126545 30.87468437 47.47956409 30.86772545 46.13841724 30.86055565 C45.4452755 30.86123669 44.75213375 30.86191772 44.03798771 30.8626194 C41.85991274 30.86358726 39.68232775 30.850612 37.50432301 30.83363914 C31.31345375 30.78744723 25.12263534 30.76276799 18.93159962 30.75615501 C15.14016072 30.75112932 11.3492342 30.72682717 7.55796909 30.69082832 C6.11717657 30.68105518 4.67631334 30.67868482 3.23549747 30.68400002 C1.21588676 30.69110069 -0.80376382 30.67165258 -2.8232832 30.65117455 C-3.97037762 30.64832451 -5.11747204 30.64547447 -6.2993269 30.64253807 C-11.41746047 29.83405209 -14.50425637 27.26327079 -17.87455273 23.44951439 C-19.97376962 19.17034149 -20.33173865 15.81911093 -19.49955273 11.13701439 C-15.06041427 2.42315001 -9.30785444 -0.01538557 0 0 Z " fill="#EBF3FE" transform="translate(34.499552726745605,215.8629856109619)"/>
<path d="M0 0 C7.04636862 3.95391844 10.23277746 9.06568707 12.6875 16.625 C14.47036787 22.04130744 16.99258308 24.92994277 21.75 28 C24.25385811 29.25192905 26.60352868 29.30409866 29.3605957 29.54272461 C43.19184382 30.80878711 52.33699338 34.78550414 62.15625 44.57421875 C66.68297862 48.80780079 69.85053258 49.24610168 76 49.8125 C84.42369567 50.79065723 89.57065405 53.08297327 95 59.625 C97.26625667 62.83553029 98.52671332 65.96249179 99.75 69.6875 C101.45707506 74.85893326 103.21050433 77.03945935 107.75 80 C110.41815539 81.3340777 112.6429608 81.18735447 115.625 81.3125 C128.29634149 82.22259635 139.30869718 86.76506228 148.14453125 95.96484375 C156.26647049 106.26053801 155.75 114.52609598 155.75 128 C16.49 128 -122.77 128 -266.25 128 C-266.25 110.14833044 -262.84547049 99.09313921 -251 86.3125 C-244.05692947 79.74055128 -235.9110319 75.53886049 -226.9765625 72.3359375 C-222.30903368 70.04898212 -219.80854581 67.42902801 -217.9140625 62.58203125 C-217.57117188 61.33808594 -217.22828125 60.09414062 -216.875 58.8125 C-213.68320567 48.23468201 -207.92156523 39.5074177 -198.2421875 33.8203125 C-189.59403698 29.31538238 -180.82515659 27.40523019 -171.09765625 29.453125 C-169.4810061 29.96634727 -167.86546264 30.48305196 -166.25 31 C-159.4421195 31.75643117 -153.65749315 29.7204426 -148.33203125 25.46875 C-147.17089682 24.42296005 -146.01070774 23.37611933 -144.8515625 22.328125 C-140.51129471 18.72887854 -135.29472472 18.58322534 -129.88671875 18.6640625 C-127.04061898 19.02667669 -124.9241936 19.82909762 -122.3125 21 C-116.92140346 23.37717643 -112.08104631 23.89137014 -106.25 23 C-103.09730711 21.56680314 -103.09730711 21.56680314 -100.25 19 C-98.44762002 17.63239259 -96.63400404 16.27953079 -94.8125 14.9375 C-93.92691406 14.26589844 -93.04132813 13.59429687 -92.12890625 12.90234375 C-85.75503871 8.6905751 -80.4675951 7.47118532 -73 7.5625 C-72.16460693 7.56717285 -71.32921387 7.5718457 -70.46850586 7.57666016 C-62.96728713 7.75548561 -56.81084365 9.4946236 -50.23046875 13.109375 C-46.05446354 14.98734184 -41.41978429 14.65762972 -37.09765625 13.34765625 C-33.33362072 11.66431599 -30.9074117 9.81136431 -28.375 6.5625 C-21.20652245 -2.42715834 -10.28727829 -4.52763446 0 0 Z " fill="#F3F2F3" transform="translate(311.25,73)"/>
<path d="M0 0 C1.16150986 -0.00397774 1.16150986 -0.00397774 2.34648457 -0.00803584 C4.96261144 -0.01574557 7.5786915 -0.01628865 10.19482899 -0.01688576 C12.0808761 -0.02089927 13.96692235 -0.02533731 15.85296756 -0.03016531 C21.05266478 -0.04214894 26.25235272 -0.0477834 31.45206106 -0.05234647 C37.05344687 -0.05829573 42.65482153 -0.06990721 48.25619984 -0.08063698 C61.79162357 -0.10517562 75.32705101 -0.11978983 88.86249015 -0.13269705 C92.68386426 -0.13640777 96.50523801 -0.14038109 100.32661176 -0.14444971 C124.04430362 -0.16968386 147.76199605 -0.19175847 171.47969818 -0.20417786 C176.97513996 -0.20709921 182.47058172 -0.21006673 187.96602345 -0.21308327 C188.64876667 -0.21345418 189.33150989 -0.21382509 190.0349423 -0.21420723 C212.17284258 -0.22636369 234.31066337 -0.25730936 256.44852631 -0.29900479 C279.8499077 -0.34299965 303.2512279 -0.36871119 326.65265685 -0.37409842 C339.41068264 -0.37751564 352.16858302 -0.38930761 364.92656994 -0.42220116 C375.78999934 -0.45016373 386.65327763 -0.46121761 397.51674023 -0.4500057 C403.06102745 -0.44480948 408.60499805 -0.44776862 414.14923954 -0.47247124 C419.22419362 -0.49489453 424.29860234 -0.49427761 429.37356553 -0.47526737 C431.21008725 -0.47245765 433.04664541 -0.47811956 434.88310834 -0.4930803 C451.47599561 -0.61999574 451.47599561 -0.61999574 457.1506961 3.78998125 C460.65134894 7.28358472 462.70079596 10.15683676 462.93794727 15.13701439 C462.63811172 20.374142 460.86168577 23.87786878 457.00044727 27.44951439 C453.05999649 30.10931867 450.10533148 30.26244168 445.45775414 30.26450634 C443.55056063 30.26901781 443.55056063 30.26901781 441.60483795 30.27362043 C440.1858094 30.27193275 438.76678093 30.27016169 437.34775257 30.26831627 C435.84658629 30.27001774 434.34542045 30.27216712 432.84425539 30.27472752 C429.57350293 30.27933154 426.30276941 30.28074402 423.03201389 30.27976227 C417.71098299 30.27817206 412.38997095 30.28336601 407.06894398 30.28938866 C399.34403012 30.29750762 391.61911957 30.30244749 383.89420223 30.30567932 C371.69005533 30.31117032 359.48593647 30.32806155 347.28180408 30.3470211 C343.10891156 30.35337802 338.93601896 30.35968641 334.76312637 30.36599827 C333.72024478 30.36758203 332.67736319 30.36916579 331.60287913 30.37079755 C319.72734721 30.38874003 307.85181332 30.40496416 295.97627735 30.41997337 C294.34752031 30.42203718 294.34752031 30.42203718 292.68585908 30.42414268 C275.08040188 30.44608375 257.47495187 30.45683148 239.86948342 30.46434412 C221.80721855 30.47240719 203.74501551 30.49567063 185.68278593 30.53229779 C174.53425926 30.55435674 163.38585959 30.5639771 152.23731219 30.55779745 C144.60153042 30.55462968 136.96585733 30.56590774 129.33010919 30.58869187 C124.92051008 30.6013948 120.51115301 30.60748735 116.10154438 30.59627533 C112.06797396 30.58615087 108.03487468 30.59426392 104.00136023 30.61713829 C102.53908074 30.62215684 101.07675939 30.62035879 99.61449993 30.61120562 C97.63268134 30.5997717 95.65076153 30.61515187 93.66898155 30.63199902 C92.0150808 30.63346423 92.0150808 30.63346423 90.32776791 30.63495904 C86.81817097 31.25816813 85.66380776 32.35576168 83.50044727 35.13701439 C83.17044727 36.12701439 82.84044727 37.11701439 82.50044727 38.13701439 C75.90044727 38.13701439 69.30044727 38.13701439 62.50044727 38.13701439 C61.51044727 35.66201439 61.51044727 35.66201439 60.50044727 33.13701439 C57.25870316 30.69892027 54.03649876 30.88598803 50.0829668 30.8816433 C48.78126545 30.87468437 47.47956409 30.86772545 46.13841724 30.86055565 C45.4452755 30.86123669 44.75213375 30.86191772 44.03798771 30.8626194 C41.85991274 30.86358726 39.68232775 30.850612 37.50432301 30.83363914 C31.31345375 30.78744723 25.12263534 30.76276799 18.93159962 30.75615501 C15.14016072 30.75112932 11.3492342 30.72682717 7.55796909 30.69082832 C6.11717657 30.68105518 4.67631334 30.67868482 3.23549747 30.68400002 C1.21588676 30.69110069 -0.80376382 30.67165258 -2.8232832 30.65117455 C-3.97037762 30.64832451 -5.11747204 30.64547447 -6.2993269 30.64253807 C-11.41746047 29.83405209 -14.50425637 27.26327079 -17.87455273 23.44951439 C-19.97376962 19.17034149 -20.33173865 15.81911093 -19.49955273 11.13701439 C-15.06041427 2.42315001 -9.30785444 -0.01538557 0 0 Z " fill="#C8DEFB" transform="translate(34.499552726745605,215.8629856109619)"/>
<path d="M0 0 C1.51346082 -0.00935994 1.51346082 -0.00935994 3.05749661 -0.01890898 C6.43074669 -0.03483478 9.80327377 -0.0222358 13.17652893 -0.00964355 C15.59805217 -0.01506486 18.01957212 -0.02218757 20.44108582 -0.03088379 C26.3310719 -0.04722653 32.22087096 -0.04483879 38.11085182 -0.03323323 C42.89943969 -0.02418956 47.68797044 -0.02297893 52.47656441 -0.02732849 C53.49994843 -0.02824789 53.49994843 -0.02824789 54.54400687 -0.02918586 C55.9301293 -0.0304648 57.31625171 -0.03176166 58.70237411 -0.03307623 C71.69277982 -0.04447577 84.68307254 -0.03137864 97.67345972 -0.00987476 C108.81109538 0.00799167 119.94856425 0.00489472 131.0861969 -0.0135498 C144.02943274 -0.03497456 156.97256956 -0.04337296 169.91582066 -0.03110075 C171.29707116 -0.0298266 172.67832168 -0.02856911 174.05957222 -0.02732849 C175.07888916 -0.02640284 175.07888916 -0.02640284 176.11879836 -0.02545848 C180.89912303 -0.02201009 185.67938471 -0.02782297 190.45969963 -0.0372467 C196.89889319 -0.04966197 203.33784623 -0.04077348 209.77701187 -0.01766968 C212.13927373 -0.012384 214.50156211 -0.01389389 216.8638134 -0.02272034 C220.09055514 -0.03366456 223.31629095 -0.01992447 226.54296875 0 C227.47595541 -0.00892289 228.40894207 -0.01784577 229.37020105 -0.02703905 C235.25430978 0.04334668 239.98998016 1.00361479 244.8349762 4.50793457 C247.60367958 7.65079412 248.73037738 10.78881773 249.3349762 14.94543457 C248.72026038 19.32528478 247.7860813 23.1322601 244.8349762 26.50793457 C238.89681498 30.50072753 233.55412367 31.08292234 226.54296875 31.01586914 C225.02716794 31.02522908 225.02716794 31.02522908 223.4807449 31.03477812 C220.10826606 31.0506815 216.73651262 31.03811382 213.36402893 31.0255127 C210.94073567 31.03093493 208.51744571 31.03805816 206.09416199 31.04675293 C200.20398007 31.06308488 194.31398528 31.06071404 188.42380863 31.04910237 C183.63571282 31.04005536 178.84767413 31.0388495 174.05957222 31.04319763 C173.03595835 31.04411703 173.03595835 31.04411703 171.99166541 31.045055 C170.60521879 31.04633395 169.21877218 31.0476308 167.83232559 31.04894537 C154.84385329 31.06034071 141.85549409 31.04725349 128.86704034 31.0257439 C117.72909844 31.00786981 106.5913233 31.01098155 95.4533844 31.02941895 C82.50868599 31.05083726 69.56408656 31.0592464 56.6193729 31.04696989 C55.23843675 31.04569574 53.85750059 31.04443825 52.47656441 31.04319763 C51.79717406 31.04258053 51.11778371 31.04196343 50.41780577 31.04132763 C45.63649877 31.0378779 40.8552547 31.04369482 36.07395744 31.05311584 C29.63639522 31.06552199 23.19907372 31.05665751 16.76153946 31.03353882 C14.39885672 31.02824924 12.03614747 31.0297697 9.67347527 31.03858948 C6.44862545 31.04951802 3.22478546 31.03581271 0 31.01586914 C-1.40282607 31.02925347 -1.40282607 31.02925347 -2.83399206 31.04290819 C-8.78467932 30.97151254 -12.27566549 29.95226329 -17.1650238 26.50793457 C-20.00398094 23.05707188 -21.05039905 19.32463596 -21.6650238 14.94543457 C-21.06315985 10.8076199 -20.03984848 7.59891148 -17.1650238 4.50793457 C-11.35259386 0.4401721 -6.9959797 -0.06674848 0 0 Z " fill="#C9E0FD" transform="translate(142.16502380371094,466.4920654296875)"/>
<path d="M0 0 C113.19 0 226.38 0 343 0 C340.61826921 30.96250027 332.96302939 61.82340521 319.1171875 89.73046875 C317.78456194 93.63049531 318.00169163 96.0309973 319 100 C319.66 100.66 320.32 101.32 321 102 C320.54050285 108.63325368 316.1729901 115.01259214 312 120 C308.97817357 120.98005182 307.22961728 120.48444259 304 120 C300.38089405 122.89819752 297.92777001 126.77772907 295.3125 130.5625 C281.53414836 150.12288384 264.82129214 168.20120037 246 183 C245.41526224 183.64199089 244.83052448 184.28398178 244.2280674 184.94542694 C237.29521704 191.82381777 230.92740466 192.0068491 221.68276978 191.99536133 C219.77336524 191.96705602 217.86397204 191.93797766 215.95458984 191.90820312 C213.9235849 191.90594409 211.89257343 191.90721797 209.86157227 191.91174316 C204.37002595 191.91403134 198.87988768 191.86711597 193.38866758 191.8111515 C187.64188564 191.76101995 181.89506867 191.75643213 176.14810181 191.74694824 C165.27542275 191.72211874 154.40338995 191.65651738 143.53099501 191.57615232 C131.14898621 191.48662243 118.76694596 191.44271929 106.38469386 191.40258884 C80.92277145 191.31904852 55.461422 191.17840384 30 191 C30 190.67 30 190.34 30 190 C30.96391568 190.0031424 31.92783136 190.00628481 32.92095661 190.00952244 C56.39995987 190.08400103 79.87857933 190.10660791 103.35768604 190.07515812 C114.71218433 190.06114374 126.06621482 190.06384288 137.4206543 190.10620117 C147.31988427 190.14308799 157.21854371 190.14829653 167.11779803 190.11582941 C172.35723084 190.099742 177.59559386 190.09927052 182.83493996 190.13676643 C187.77257366 190.17160179 192.70836179 190.1638903 197.64594269 190.12437057 C199.45223067 190.11726176 201.25865642 190.12533571 203.06478691 190.15022469 C213.45554996 190.28359536 220.06364451 189.85119045 227.90961742 182.22371578 C228.59944367 181.48988957 229.28926992 180.75606337 230 180 C231.1436275 178.9846958 232.295941 177.97899293 233.4609375 176.98828125 C245.83818686 165.6231126 256.9211161 153.44484362 267 140 C267.41846191 139.44908691 267.83692383 138.89817383 268.26806641 138.33056641 C298.2439872 98.69404843 315.08814026 50.11859742 320 1 C214.4 1 108.8 1 0 1 C0 0.67 0 0.34 0 0 Z " fill="#D7E3F3" transform="translate(123,261)"/>
<path d="M0 0 C3 2.5 3 2.5 5 5 C5.495 5.495 5.495 5.495 6 6 C6.53632423 9.82131017 6.87879585 12.50014702 4.89453125 15.88671875 C3.04147565 18.06920646 1.07584235 20.02641589 -1 22 C-1.47195801 22.4542334 -1.94391602 22.9084668 -2.43017578 23.37646484 C-7.88913455 28.6107751 -13.47185638 33.64367444 -19.375 38.375 C-25.39669368 43.2064614 -30.95437915 48.49211671 -36.5703125 53.78125 C-40.76808922 57.73316017 -45.08290505 61.52345773 -49.47753906 65.25439453 C-56.04683259 70.83344942 -62.56006086 76.44538286 -68.875 82.3125 C-69.41406982 82.81201172 -69.95313965 83.31152344 -70.50854492 83.82617188 C-72.81764935 85.96765984 -75.12140934 88.11433695 -77.4140625 90.2734375 C-78.10242188 90.90507813 -78.79078125 91.53671875 -79.5 92.1875 C-80.0671875 92.71730469 -80.634375 93.24710937 -81.21875 93.79296875 C-83.47309151 95.32058174 -85.30546208 95.7086986 -88 96 C-90.8125 95.0625 -90.8125 95.0625 -93 94 C-91.49518807 88.71800912 -88.03520717 85.52224421 -84.3125 81.6875 C-83.02915689 80.3392942 -81.74659443 78.99034483 -80.46484375 77.640625 C-79.85624512 77.00318359 -79.24764648 76.36574219 -78.62060547 75.70898438 C-75.19406161 72.09557567 -71.96757074 68.31758235 -68.74560547 64.52246094 C-62.20595663 56.82207553 -55.54908783 49.27591084 -48.66796875 41.87890625 C-44.4325365 37.3086082 -40.36473809 32.60835337 -36.33203125 27.859375 C-10.35487327 -2.68260966 -10.35487327 -2.68260966 0 0 Z " fill="#524D54" transform="translate(491,16)"/>
<path d="M0 0 C5.09172508 1.69724169 7.76096076 4.69383295 11.08984375 8.703125 C13.1172313 11.14096524 15.23393231 13.47408172 17.375 15.8125 C20.42858867 19.18940982 23.34429205 22.63217132 26.1875 26.1875 C31.09404731 32.25816662 36.43200617 37.89068915 41.78125 43.5703125 C45.28932339 47.29663931 48.68059638 51.104854 52 55 C53.93617119 57.27197014 55.87363738 59.54282613 57.8125 61.8125 C58.57892822 62.71005005 58.57892822 62.71005005 59.36083984 63.62573242 C64.12815128 69.18859741 69.03277748 74.61517912 74 80 C71.19195732 82.96404505 68.81684226 85.44499019 65 87 C64.11699219 86.16597656 63.23398438 85.33195312 62.32421875 84.47265625 C56.86149966 79.34068623 51.42613982 74.23923992 45.5625 69.5625 C39.55749893 64.75672252 34.02439223 59.48784835 28.4296875 54.21875 C24.24314578 50.2774168 19.94501184 46.49032589 15.5546875 42.77783203 C8.48850919 36.80187628 1.53006303 30.73802363 -5.25 24.4375 C-5.89396729 23.84187256 -6.53793457 23.24624512 -7.20141602 22.63256836 C-7.80010498 22.07190674 -8.39879395 21.51124512 -9.015625 20.93359375 C-9.54446289 20.43915771 -10.07330078 19.94472168 -10.61816406 19.43530273 C-13.32897813 16.61960028 -13.99457091 15.0561006 -14.375 11.125 C-14.2756446 6.96735862 -13.01774825 4.93152687 -10 2 C-6.25816125 -0.49455917 -4.43756964 -0.37606522 0 0 Z " fill="#524D54" transform="translate(29,15)"/>
<path d="M0 0 C3.0237617 1.9768381 5.46402566 4.44071707 8 7 C8.804375 7.77988281 9.60875 8.55976563 10.4375 9.36328125 C16.595 15.3925 16.595 15.3925 19 19 C18.78206897 25.10206897 18.78206897 25.10206897 16.3125 27.9375 C13.28100014 29.33035129 11.31925619 29.33602347 8 29 C5.47265625 27.27734375 5.47265625 27.27734375 3.0625 24.9375 C1.78052734 23.70966797 1.78052734 23.70966797 0.47265625 22.45703125 C-0.34332031 21.64621094 -1.15929687 20.83539063 -2 20 C-2.70253906 19.32324219 -3.40507812 18.64648438 -4.12890625 17.94921875 C-6.76259798 15.38150677 -8.94926053 13.0761092 -11 10 C-10.81989972 6.63812807 -10.58112046 4.00081858 -8.875 1.0625 C-5.64048218 -0.77039343 -3.66028566 -0.60004683 0 0 Z " fill="#090909" transform="translate(372,141)"/>
<path d="M0 0 C3.0237617 1.9768381 5.46402566 4.44071707 8 7 C8.804375 7.77988281 9.60875 8.55976562 10.4375 9.36328125 C16.595 15.3925 16.595 15.3925 19 19 C18.78206897 25.10206897 18.78206897 25.10206897 16.3125 27.9375 C13.28100014 29.33035129 11.31925619 29.33602347 8 29 C5.47265625 27.27734375 5.47265625 27.27734375 3.0625 24.9375 C1.78052734 23.70966797 1.78052734 23.70966797 0.47265625 22.45703125 C-0.34332031 21.64621094 -1.15929687 20.83539063 -2 20 C-2.70253906 19.32324219 -3.40507812 18.64648438 -4.12890625 17.94921875 C-6.76259798 15.38150677 -8.94926053 13.0761092 -11 10 C-10.81989972 6.63812807 -10.58112046 4.00081858 -8.875 1.0625 C-5.64048218 -0.77039343 -3.66028566 -0.60004683 0 0 Z " fill="#090909" transform="translate(182,111)"/>
<path d="M0 0 C2.9375 2.125 2.9375 2.125 5 5 C5.29894332 8.36311233 4.60995986 10.15933899 2.63671875 12.87890625 C0.83023172 15.00100941 -1.05373582 17.00535832 -3 19 C-3.70511719 19.7321875 -4.41023438 20.464375 -5.13671875 21.21875 C-12.54606573 28.77874913 -12.54606573 28.77874913 -16.875 29.4375 C-20 29 -20 29 -22.9375 26.9375 C-25 24 -25 24 -25.125 20.83984375 C-24.15683662 15.45730795 -19.88413903 12.21212186 -16.0625 8.625 C-15.32064453 7.90183594 -14.57878906 7.17867187 -13.81445312 6.43359375 C-6.38081479 -0.75068409 -6.38081479 -0.75068409 0 0 Z " fill="#090909" transform="translate(326,156)"/>
<path d="M0 0 C2.9375 2.125 2.9375 2.125 5 5 C5.29894332 8.36311233 4.60995986 10.15933899 2.63671875 12.87890625 C0.83023172 15.00100941 -1.05373582 17.00535832 -3 19 C-3.70511719 19.7321875 -4.41023438 20.464375 -5.13671875 21.21875 C-12.54606573 28.77874913 -12.54606573 28.77874913 -16.875 29.4375 C-20 29 -20 29 -22.9375 26.9375 C-25 24 -25 24 -25.125 20.83984375 C-24.15683662 15.45730795 -19.88413903 12.21212186 -16.0625 8.625 C-15.32064453 7.90183594 -14.57878906 7.17867187 -13.81445312 6.43359375 C-6.38081479 -0.75068409 -6.38081479 -0.75068409 0 0 Z " fill="#090909" transform="translate(236,156)"/>
<path d="M0 0 C2.9375 2.125 2.9375 2.125 5 5 C5.29894332 8.36311233 4.60995986 10.15933899 2.63671875 12.87890625 C0.83023172 15.00100941 -1.05373582 17.00535832 -3 19 C-3.70511719 19.7321875 -4.41023438 20.464375 -5.13671875 21.21875 C-12.54606573 28.77874913 -12.54606573 28.77874913 -16.875 29.4375 C-20 29 -20 29 -22.9375 26.9375 C-25 24 -25 24 -25.125 20.83984375 C-24.15683662 15.45730795 -19.88413903 12.21212186 -16.0625 8.625 C-15.32064453 7.90183594 -14.57878906 7.17867187 -13.81445312 6.43359375 C-6.38081479 -0.75068409 -6.38081479 -0.75068409 0 0 Z " fill="#090909" transform="translate(146,156)"/>
<path d="M0 0 C2.9375 2.125 2.9375 2.125 5 5 C5.29894332 8.36311233 4.60995986 10.15933899 2.63671875 12.87890625 C0.83023172 15.00100941 -1.05373582 17.00535832 -3 19 C-3.70511719 19.7321875 -4.41023438 20.464375 -5.13671875 21.21875 C-12.54606573 28.77874913 -12.54606573 28.77874913 -16.875 29.4375 C-20 29 -20 29 -22.9375 26.9375 C-25 24 -25 24 -25.125 20.83984375 C-24.15683662 15.45730795 -19.88413903 12.21212186 -16.0625 8.625 C-15.32064453 7.90183594 -14.57878906 7.17867188 -13.81445312 6.43359375 C-6.38081479 -0.75068409 -6.38081479 -0.75068409 0 0 Z " fill="#090909" transform="translate(296,111)"/>
</svg>
