<?xml version="1.0" standalone="no"?>
<!DOCTYPE svg PUBLIC "-//W3C//DTD SVG 20010904//EN"
 "http://www.w3.org/TR/2001/REC-SVG-20010904/DTD/svg10.dtd">
<svg version="1.0" xmlns="http://www.w3.org/2000/svg"
 width="512.000000pt" height="512.000000pt" viewBox="0 0 512.000000 512.000000"
 preserveAspectRatio="xMidYMid meet">

<g transform="translate(0.000000,512.000000) scale(0.100000,-0.100000)"
fill="#000000" stroke="none">
<path d="M176 5104 c-107 -33 -186 -160 -173 -276 12 -99 30 -119 457 -496
l400 -354 -17 -31 c-9 -18 -24 -56 -33 -86 -8 -30 -22 -58 -30 -62 -8 -4 -55
-26 -105 -50 -75 -35 -104 -57 -175 -128 -125 -126 -178 -236 -202 -421 l-13
-94 -42 -8 c-144 -24 -254 -169 -240 -318 12 -141 143 -270 272 -270 l31 0 17
-133 c39 -295 128 -591 262 -862 152 -310 289 -500 539 -751 l171 -171 -45
-16 c-64 -23 -124 -78 -157 -145 -23 -47 -28 -70 -28 -132 1 -124 56 -214 163
-267 l57 -28 1254 -3 c1400 -3 1315 -7 1409 67 72 58 107 132 107 231 0 62 -5
85 -28 132 -33 67 -93 122 -157 145 l-46 16 166 166 c225 224 398 448 385 500
-10 39 -35 61 -70 61 -41 0 -51 -9 -130 -120 -135 -190 -307 -371 -496 -523
l-96 -77 -1023 0 -1023 0 -96 76 c-228 181 -472 463 -623 716 -188 318 -315
697 -352 1056 l-7 62 235 0 235 0 20 26 c26 33 27 65 2 95 l-19 24 -345 5
c-328 5 -347 6 -373 25 -89 67 -81 192 17 250 34 20 52 20 2329 20 2277 0
2295 0 2329 -20 98 -58 106 -183 17 -250 -27 -20 -37 -20 -1863 -25 l-1835 -5
-19 -24 c-26 -32 -24 -73 4 -99 l23 -22 1722 0 c1101 0 1722 -3 1722 -10 0 -5
-7 -60 -16 -122 -32 -240 -95 -462 -195 -697 -43 -101 -51 -127 -43 -149 20
-57 97 -67 130 -17 24 37 88 189 129 307 68 196 118 417 140 624 l7 62 48 4
c231 22 340 313 184 487 -52 58 -100 86 -171 101 l-48 11 -1 77 c-1 146 -58
275 -166 378 -95 91 -193 135 -342 151 l-69 8 -12 42 c-7 23 -24 62 -39 87
l-26 44 438 386 c319 282 446 400 469 437 65 105 51 232 -35 318 -98 98 -238
107 -345 23 -25 -20 -225 -239 -443 -487 -218 -247 -406 -461 -419 -474 l-23
-23 -51 40 c-90 71 -157 96 -320 119 l-54 8 -19 55 c-93 274 -447 346 -642
129 -20 -21 -41 -39 -46 -39 -6 0 -29 9 -52 21 -76 39 -139 53 -238 52 -138 0
-233 -35 -344 -126 -46 -38 -50 -40 -80 -28 -93 39 -113 43 -191 39 -93 -4
-173 -36 -237 -94 -22 -19 -45 -33 -52 -31 -68 26 -217 32 -292 11 -18 -5 -74
54 -373 393 -194 219 -373 415 -398 435 -72 57 -152 71 -247 42z m2938 -724
c57 -27 99 -82 120 -154 15 -51 56 -101 102 -124 12 -6 61 -15 111 -20 113
-11 179 -41 259 -115 68 -63 97 -77 156 -77 108 0 202 -70 232 -173 28 -96 87
-147 170 -147 156 0 296 -79 363 -207 35 -66 57 -166 47 -218 l-6 -35 -2115 0
-2115 0 7 68 c21 201 134 361 315 444 129 60 130 60 151 89 11 15 31 62 44
104 42 127 103 198 217 250 76 35 147 41 245 21 101 -21 142 -12 206 44 25 22
61 47 81 55 54 23 132 19 194 -10 58 -27 129 -33 164 -14 12 6 46 32 77 57 67
55 122 80 201 93 73 12 175 -7 247 -45 86 -46 181 -27 238 49 70 91 183 117
289 65z m715 -3950 c27 -13 46 -33 61 -65 35 -72 17 -137 -54 -189 -27 -21
-33 -21 -1263 -24 -1233 -2 -1236 -2 -1279 18 -45 22 -84 82 -84 130 0 42 38
105 77 128 l38 22 1233 0 c1206 0 1234 0 1271 -20z"/>
<path d="M1731 3984 c-38 -49 -23 -80 88 -187 61 -58 88 -77 109 -77 60 0 95
56 68 108 -8 15 -50 62 -94 105 -69 67 -84 77 -115 77 -26 0 -41 -7 -56 -26z"/>
<path d="M2819 3933 c-114 -110 -129 -144 -84 -188 46 -47 76 -36 175 63 53
51 92 99 96 115 10 42 -22 81 -70 85 -34 3 -43 -3 -117 -75z"/>
<path d="M3631 3684 c-38 -49 -23 -80 88 -187 61 -58 88 -77 109 -77 60 0 95
56 68 108 -8 15 -50 62 -94 105 -69 67 -84 77 -115 77 -26 0 -41 -7 -56 -26z"/>
<path d="M1319 3483 c-114 -110 -129 -144 -84 -188 46 -47 76 -36 175 63 53
51 92 99 96 115 10 42 -22 81 -70 85 -34 3 -43 -3 -117 -75z"/>
<path d="M2219 3483 c-114 -110 -129 -144 -84 -188 46 -47 76 -36 175 63 53
51 92 99 96 115 10 42 -22 81 -70 85 -34 3 -43 -3 -117 -75z"/>
<path d="M3119 3483 c-114 -110 -129 -144 -84 -188 46 -47 76 -36 175 63 53
51 92 99 96 115 10 42 -22 81 -70 85 -34 3 -43 -3 -117 -75z"/>
</g>
</svg>
