<?xml version="1.0" standalone="no"?>
<!DOCTYPE svg PUBLIC "-//W3C//DTD SVG 20010904//EN"
 "http://www.w3.org/TR/2001/REC-SVG-20010904/DTD/svg10.dtd">
<svg version="1.0" xmlns="http://www.w3.org/2000/svg"
 width="512.000000pt" height="512.000000pt" viewBox="0 0 512.000000 512.000000"
 preserveAspectRatio="xMidYMid meet">

<g transform="translate(0.000000,512.000000) scale(0.100000,-0.100000)"
fill="#000000" stroke="none">
<path d="M1730 5105 c-173 -35 -327 -127 -443 -263 -55 -65 -130 -211 -150
-291 -21 -83 -37 -88 -108 -36 -105 77 -221 107 -334 86 -182 -34 -319 -175
-348 -361 l-11 -68 -52 -16 c-72 -23 -163 -92 -206 -157 -57 -88 -73 -141 -73
-249 0 -88 3 -100 36 -170 21 -45 55 -94 83 -122 l47 -47 -25 -38 c-43 -68
-59 -135 -54 -237 5 -117 42 -202 121 -279 l53 -52 -4 -122 -4 -121 -40 -6
c-81 -13 -151 -65 -191 -141 -29 -54 -30 -163 -2 -219 23 -48 73 -99 114 -117
l31 -14 0 -178 c0 -264 21 -424 81 -622 189 -615 713 -1094 1341 -1225 184
-38 284 -42 1043 -38 704 4 734 5 842 26 228 45 473 143 658 263 287 187 537
485 669 799 107 252 146 469 146 804 l0 171 31 14 c41 18 91 69 114 117 28 56
27 165 -2 219 -25 47 -75 96 -120 119 l-32 16 30 48 c41 65 59 132 59 223 0
82 -24 167 -62 221 l-18 26 47 49 c167 171 161 438 -12 602 -51 48 -125 92
-175 104 -23 6 -27 14 -38 79 -8 45 -26 97 -47 138 -25 46 -35 77 -35 110 0
56 -23 157 -52 230 -39 98 -90 173 -172 256 -92 91 -184 150 -301 191 -74 26
-91 28 -235 28 -148 0 -159 -2 -240 -31 -47 -17 -93 -34 -102 -38 -14 -6 -18
-4 -18 10 0 32 -56 137 -98 184 -149 167 -420 185 -587 39 l-35 -31 -70 22
c-57 18 -86 22 -160 18 -82 -4 -98 -8 -172 -46 l-81 -41 -28 23 c-146 123
-404 183 -609 141z m-953 -708 l29 -34 34 23 c30 21 35 22 60 9 15 -8 40 -29
54 -47 75 -92 102 -99 183 -48 26 17 63 35 82 40 30 8 38 6 58 -12 24 -22 83
-132 83 -152 0 -6 -19 -22 -41 -36 -74 -45 -176 -165 -221 -259 -23 -47 -42
-88 -44 -90 -2 -2 -29 13 -61 32 -86 52 -204 107 -231 107 -33 0 -82 -52 -82
-87 0 -46 25 -69 131 -124 55 -28 127 -71 160 -95 55 -41 59 -47 59 -84 0 -37
-2 -39 -37 -46 -82 -13 -162 -37 -238 -69 -44 -19 -117 -47 -162 -64 -99 -35
-207 -104 -279 -176 l-54 -54 0 33 c0 61 29 123 86 181 42 42 54 62 54 85 0
48 -16 67 -75 95 -96 46 -148 126 -148 230 0 139 93 236 241 251 53 6 67 12
87 36 23 27 24 34 18 107 -4 51 -1 91 7 116 25 74 132 164 196 165 12 0 35
-15 51 -33z m3601 -361 c43 -65 65 -144 60 -217 -4 -55 -3 -59 17 -59 42 0
130 -32 148 -53 11 -12 33 -29 50 -37 43 -21 94 -91 113 -157 31 -105 5 -236
-62 -316 -26 -31 -104 -92 -128 -100 -6 -2 5 -22 26 -45 117 -130 125 -317 18
-452 -26 -33 -38 -40 -66 -40 l-35 0 6 43 c9 58 -9 187 -39 282 -36 112 -88
196 -185 297 l-84 88 18 47 c10 27 42 95 71 153 40 79 52 112 47 133 -13 62
-102 89 -147 44 -23 -23 -113 -193 -134 -254 -6 -18 -15 -33 -20 -33 -5 0 -35
9 -67 20 -92 32 -218 44 -316 31 -105 -14 -219 -52 -294 -97 -32 -19 -59 -33
-60 -32 -1 2 -14 29 -29 61 -28 59 -28 59 -10 98 34 76 109 126 210 138 99 12
109 26 109 154 0 112 9 140 66 196 90 91 227 102 328 26 51 -37 103 -34 142 7
16 18 29 36 29 40 0 12 69 60 107 74 57 20 75 14 111 -40z m-1887 -563 c21 -8
64 -43 97 -79 69 -75 90 -80 161 -35 92 57 184 65 268 22 92 -46 139 -139 130
-253 -9 -108 21 -148 114 -148 22 0 56 -7 77 -15 42 -18 107 -77 128 -118 39
-73 34 -181 -11 -249 l-25 -38 -384 0 -383 0 33 198 c19 108 34 211 34 228 0
86 -108 122 -154 52 -9 -13 -32 -126 -53 -251 l-38 -227 -261 0 -261 0 -5 128
c-4 109 -10 140 -36 217 -18 50 -33 94 -34 99 -6 19 81 57 147 65 100 12 110
25 110 154 0 98 2 106 30 153 32 51 112 109 164 117 38 7 110 -3 152 -20z
m-1245 -518 c134 -60 217 -205 198 -347 l-7 -48 -328 0 -328 0 -6 53 c-16 133
61 276 183 337 91 45 196 47 288 5z m2582 -70 c120 -36 203 -172 172 -284
l-11 -41 -175 0 c-159 0 -176 2 -170 16 27 71 33 211 11 281 -6 19 -2 23 37
31 62 14 78 14 136 -3z m940 -520 c15 -32 15 -85 2 -119 l-10 -26 -2263 0
c-2243 0 -2265 0 -2290 20 -48 38 -41 110 13 137 20 10 482 13 2281 13 l2256
0 11 -25z m-158 -442 c-1 -171 -16 -356 -40 -471 -89 -441 -349 -827 -725
-1077 -204 -136 -327 -177 -590 -195 -177 -13 -1217 -12 -1388 0 -152 11 -249
28 -375 66 -529 159 -958 606 -1092 1139 -41 161 -50 244 -50 461 l0 194 2130
0 2130 0 0 -117z"/>
</g>
</svg>
