<?xml version="1.0" encoding="UTF-8"?>
<svg version="1.1" xmlns="http://www.w3.org/2000/svg" width="512" height="512">
<path d="M0 0 C0.89460937 0.763125 1.78921875 1.52625 2.7109375 2.3125 C4.79730011 4.22251156 4.79730011 4.22251156 7.015625 3.90234375 C9.30656919 2.8605955 11.53198002 1.7527432 13.75 0.5625 C23.22265381 -4.20829799 33.2973934 -6.00795388 43.703125 -2.890625 C45.52070312 -2.26414062 45.52070312 -2.26414062 47.375 -1.625 C51.79983616 -0.03256886 51.79983616 -0.03256886 56.15625 -0.9296875 C57.90809427 -2.47264829 57.90809427 -2.47264829 59.42578125 -4.265625 C64.10452323 -9.42036802 72.60878765 -11.99950977 79.35546875 -12.3359375 C93.67574653 -12.60446115 105.14027238 -10.28813229 115.9375 -0.1875 C121.56087561 5.82369462 125.63610991 12.83116895 127 21 C127.69222656 20.67386719 128.38445312 20.34773438 129.09765625 20.01171875 C148.20119823 11.47930672 169.36730921 10.09418136 189.109375 17.4765625 C208.66520474 25.30625486 223.45978208 39.317851 232.56640625 58.2578125 C236.23647478 67.17553126 237.89716792 76.41858272 239.484375 85.890625 C240.3612788 90.81942914 241.6753453 94.73024092 244.05078125 99.13671875 C246.75561121 104.44619978 247.38570496 110.16419716 248 116 C248.82242187 116.25652344 249.64484375 116.51304687 250.4921875 116.77734375 C261.48459318 120.54725655 270.20169913 126.86170539 276.1953125 137.02734375 C276.50210937 137.65769531 276.80890625 138.28804687 277.125 138.9375 C277.43695313 139.56527344 277.74890625 140.19304687 278.0703125 140.83984375 C282.36804042 150.82574097 282.90741906 163.58174085 279.5 174 C276.55626405 180.74210492 272.17194942 187.88536705 266 192 C266.99792467 194.50599917 268.00322261 197.0077829 269.03515625 199.5 C269.37417969 200.325 269.71320313 201.15 270.0625 202 C270.57490234 203.2375 270.57490234 203.2375 271.09765625 204.5 C275.1051197 215.60292904 273.54210692 227.335977 268.6875 237.83984375 C267.49757178 240.25012448 266.27399318 242.63329329 265 245 C266.5159375 245.7425 266.5159375 245.7425 268.0625 246.5 C274.08838473 249.94161303 278.96251674 255.31782742 281 262 C281.78374987 270.13823994 282.16721848 278.23380512 277 285 C273.76471476 288.74611975 270.24164603 291.45501238 266 294 C265.34 294 264.68 294 264 294 C264.02094727 295.2375 264.04189453 296.475 264.06347656 297.75 C264.78290774 344.37432353 264.78290774 344.37432353 260 363 C259.67854004 364.29284912 259.67854004 364.29284912 259.35058594 365.61181641 C251.41782432 396.66736571 235.14625553 424.02985104 213 447 C211.8553125 448.23943359 211.8553125 448.23943359 210.6875 449.50390625 C185.11296955 476.41764353 148.32199417 493.21081175 112 499 C110.94251556 499.16897293 109.88503113 499.33794586 108.79550171 499.51203918 C102.21103578 500.32054793 95.57619288 500.16494735 88.95288086 500.17700195 C87.43238677 500.18327704 85.91189417 500.18992474 84.3914032 500.19691467 C79.41589402 500.21785281 74.44038494 500.22831515 69.46484375 500.23828125 C67.74049935 500.24233419 66.01615509 500.24645127 64.29181099 500.25063133 C56.17756889 500.26966934 48.06333575 500.28389701 39.94907564 500.2922433 C30.64390444 500.30197698 21.33897357 500.32820043 12.03388685 500.36874419 C4.80454932 500.39913962 -2.42472031 500.41373454 -9.65412039 500.41702431 C-13.95344749 500.41935042 -18.2525176 500.42798433 -22.55177498 500.45348549 C-55.46801042 500.63847695 -85.13220346 496.6029628 -115 482 C-115.66370605 481.67773438 -116.32741211 481.35546875 -117.01123047 481.0234375 C-159.07383052 460.33381068 -190.7053771 421.72044391 -205.75 377.6875 C-211.02372303 361.70138901 -214.18984771 345.21950352 -214.09765625 328.375 C-214.0962413 327.38749756 -214.09482635 326.39999512 -214.09336853 325.38256836 C-214.08780927 322.25501364 -214.07526446 319.12753277 -214.0625 316 C-214.05747973 313.86849062 -214.05291775 311.73698012 -214.04882812 309.60546875 C-214.03785322 304.403621 -214.02115612 299.20181578 -214 294 C-214.93585938 293.71769531 -215.87171875 293.43539063 -216.8359375 293.14453125 C-222.71638105 291.01740784 -227.33633798 285.35713877 -230.08984375 279.80078125 C-232.22176723 273.24031285 -232.35444141 263.87220248 -229.4375 257.5 C-225.40515493 250.98293526 -220.35874259 246.36531012 -213 244 C-210.67021608 243.64270121 -208.33706914 243.30604477 -206 243 C-206.01160156 242.01 -206.02320313 241.02 -206.03515625 240 C-206.0446125 238.66666905 -206.05370325 237.33333547 -206.0625 236 C-206.07087891 235.31099609 -206.07925781 234.62199219 -206.08789062 233.91210938 C-206.10505136 230.27746534 -205.88675383 227.01908608 -205 223.5 C-204.61537747 220.05842258 -204.61537747 220.05842258 -206.50390625 218.28515625 C-207.91434042 217.10488781 -209.34825011 215.95227522 -210.80078125 214.82421875 C-218.80324776 208.1862936 -222.20524458 197.77975029 -223.3828125 187.734375 C-223.70243263 178.91285949 -222.07346645 169.8610228 -217.30078125 162.3125 C-216.87152344 161.549375 -216.44226563 160.78625 -216 160 C-217.04513114 156.86460657 -218.22928948 155.80265888 -220.53515625 153.5703125 C-228.26926524 145.27934767 -231.58427879 135.83523034 -231.4375 124.625 C-231.42847656 123.79355469 -231.41945312 122.96210938 -231.41015625 122.10546875 C-231.08266278 110.44306224 -226.80780352 101.67084225 -219 93 C-212.7724018 87.43337408 -205.92588875 84.42598496 -198 82 C-197.90525391 80.83597656 -197.90525391 80.83597656 -197.80859375 79.6484375 C-196.49291111 68.04273173 -192.2534098 56.77582446 -183.44921875 48.75 C-171.73127014 40.37736686 -160.19172481 37.810061 -146 39 C-138.90583589 40.38403425 -133.23332582 42.96477244 -127.71875 47.6328125 C-124.78778945 49.96425839 -122.77726698 51 -119 51 C-118.83177734 49.24429688 -118.83177734 49.24429688 -118.66015625 47.453125 C-116.4108553 29.66213244 -104.31990945 14.24165275 -91 3 C-63.94176318 -17.82513572 -28.53534622 -16.48995177 0 0 Z " fill="#010100" transform="translate(231,12)"/>
<path d="M0 0 C146.52 0 293.04 0 444 0 C444 42.33518313 444 42.33518313 441 59 C440.8767334 59.71494629 440.7534668 60.42989258 440.62646484 61.16650391 C435.29890439 90.51444404 418.39113655 117.73806759 398 139 C397.23429687 139.81726563 396.46859375 140.63453125 395.6796875 141.4765625 C368.08857076 170.13228824 327.34092287 187.13491293 287.76715088 188.28167725 C279.98385794 188.4189691 272.20117268 188.42308587 264.4168973 188.40297651 C260.47546606 188.39524968 256.53405317 188.40246117 252.59262085 188.40713501 C245.97804947 188.4125567 239.36357935 188.40549762 232.74902344 188.39111328 C225.164528 188.37480732 217.5802749 188.38007495 209.99578536 188.3965925 C203.41927578 188.41032712 196.842838 188.41206892 190.26631868 188.40427649 C186.36689386 188.39966319 182.46758183 188.39879509 178.56816483 188.40888596 C126.9744964 188.52386664 83.05999104 175.93811171 45.625 139 C7.18647044 100.093626 0 53.21711544 0 0 Z " fill="#01A8F3" transform="translate(34,307)"/>
<path d="M0 0 C5.28795312 3.42300537 8.73577314 7.92160416 10.61035156 13.96899414 C11.40223191 18.09659603 10.8683091 22.52319301 10.609375 26.71289062 C10.49367349 30.82390985 10.6575781 32.52010485 13.12109375 35.97265625 C16.40388093 38.28441547 18.34271734 38.69572923 22.3125 39 C31.14016155 40.08602157 36.10896603 43.44749049 41.7734375 50.15625 C44.66999901 54.51031698 45.29432379 58.31372212 45.3125 63.5 C45.32925781 64.6034375 45.34601563 65.706875 45.36328125 66.84375 C44.94989282 70.43533981 44.26607074 72.19277804 42 75 C39.3984375 76.51953125 39.3984375 76.51953125 36.375 77.8125 C25.14822805 83.141149 18.71289863 90.69017926 13.6875 101.9375 C12.64552887 106.57900778 12.32047768 111.26030383 12 116 C11.26136719 116.268125 10.52273438 116.53625 9.76171875 116.8125 C-1.83675856 121.29272504 -10.91454693 126.90752857 -17 138 C-20.11868249 137.44711825 -22.79245966 136.69383826 -25.6875 135.4375 C-30.47215046 133.79428671 -35.0556869 133.70026857 -40.0625 133.6875 C-40.81813232 133.68226318 -41.57376465 133.67702637 -42.35229492 133.67163086 C-47.52170195 133.73514537 -52.02854456 134.58361485 -57 136 C-56.38561691 132.19528685 -55.26522553 129.10716247 -53.59375 125.640625 C-53.10213379 124.61622314 -52.61051758 123.59182129 -52.10400391 122.53637695 C-51.57468262 121.45187256 -51.04536133 120.36736816 -50.5 119.25 C-49.68088135 117.5642688 -49.68088135 117.5642688 -48.84521484 115.84448242 C-47.24035636 112.55783953 -45.6234312 109.27750297 -44 106 C-43.39526855 104.77434326 -43.39526855 104.77434326 -42.77832031 103.52392578 C-36.00719885 89.91757395 -27.92980144 76.94569112 -19.24414062 64.47998047 C-18.69564453 63.68994629 -18.14714844 62.89991211 -17.58203125 62.0859375 C-17.08807861 61.39032715 -16.59412598 60.6947168 -16.08520508 59.97802734 C-14.70131856 57.80932012 -14.70131856 57.80932012 -14.875 54.125 C-15.78148363 51.01451435 -15.78148363 51.01451435 -17.6875 49.0625 C-20.7864448 47.6386605 -22.62182812 47.44846173 -26 48 C-30.75150473 52.02669892 -33.86192032 57.03225444 -37.1875 62.25 C-37.75557373 63.13316895 -38.32364746 64.01633789 -38.90893555 64.92626953 C-44.16660941 73.15406792 -49.14760156 81.52837523 -54 90 C-54.39654785 90.69013184 -54.7930957 91.38026367 -55.20166016 92.09130859 C-57.4784 96.05486757 -59.74440551 100.02435719 -62 104 C-64.10288866 101.89711134 -64.8019516 100.37870432 -66 97.6875 C-75.15074752 79.17195239 -90.88151473 67.22612309 -109.921875 59.98046875 C-112.9481259 59.01652335 -115.85819648 58.43740678 -119 58 C-117.03139361 52.98900193 -113.44915168 50.76719795 -108.8125 48.3125 C-105.05122322 46.76179817 -101.36854258 46.59925691 -97.33203125 46.50390625 C-94.0026323 45.78448839 -92.9130641 44.82551634 -91 42 C-90.83862472 39.0130903 -90.86540541 36.33536686 -91.0625 33.375 C-91.33780525 24.79508191 -90.32614106 18.69839041 -84.3203125 12.17578125 C-77.49141205 5.90836817 -71.06869982 4.30867574 -61.8984375 4.42578125 C-56.57764555 5.20950511 -53.06309455 7.41039152 -48.78125 10.56640625 C-44.99399668 12.51854385 -43.04526361 12.22362375 -39 11 C-36.34485048 8.66786363 -36.34485048 8.66786363 -34.125 5.6875 C-24.78142939 -5.16400735 -12.57106831 -7.51317754 0 0 Z " fill="#008900" transform="translate(330,21)"/>
<path d="M0 0 C6.60757304 3.69542079 11.15865211 8.68691319 14.171875 15.61328125 C15.42976613 20.61545581 15.02397469 25.44933491 14.75390625 30.56835938 C14.50838664 35.11848753 14.50838664 35.11848753 16.65625 38.9296875 C19.39906128 40.10517805 21.79315704 40.53321977 24.7578125 40.875 C34.08739865 42.30161147 39.3055751 45.34132595 45.375 52.6484375 C49.43836285 58.34492226 49.85743456 65.15088479 49.0078125 71.9375 C46.51065454 80.05969935 42.31487228 85.55326413 35.0078125 89.9375 C33.9353125 90.453125 32.8628125 90.96875 31.7578125 91.5 C28.76213417 92.78556581 28.76213417 92.78556581 27.0078125 95.9375 C26.83224703 98.1617148 26.83224703 98.1617148 27.1328125 100.5 C27.19726562 101.28503906 27.26171875 102.07007813 27.328125 102.87890625 C27.81035582 105.10254911 27.81035582 105.10254911 29.90234375 106.04296875 C30.59714844 106.33816406 31.29195312 106.63335937 32.0078125 106.9375 C38.78395643 114.20945934 40.64308256 120.25106684 40.41796875 130.234375 C39.65597836 137.11405965 36.67965583 141.59716758 31.7578125 146.3125 C23.8974096 152.38491426 15.61709109 152.33850544 6.0078125 151.9375 C5.9984668 151.37466309 5.98912109 150.81182617 5.97949219 150.23193359 C5.5195914 128.10709889 0.80053741 107.442893 -14.9921875 90.9375 C-18.24095368 87.83302 -21.56580373 84.84430918 -24.9921875 81.9375 C-22.69312481 73.5933494 -19.35597722 66.43490122 -14.99047852 58.99047852 C-12.42661914 54.44956421 -11.43898838 51.29167721 -11.9921875 45.9375 C-12.3221875 44.9475 -12.6521875 43.9575 -12.9921875 42.9375 C-14.38083184 42.63193774 -15.77900014 42.36949192 -17.1796875 42.125 C-17.95699219 41.97417969 -18.73429687 41.82335937 -19.53515625 41.66796875 C-23.40668919 42.09266791 -24.56520714 43.95363113 -26.9921875 46.9375 C-28.86813037 49.98148951 -30.50293857 53.12349446 -32.1171875 56.3125 C-32.54644531 57.1375 -32.97570312 57.9625 -33.41796875 58.8125 C-35.80984637 63.44906278 -38.00324583 68.11464144 -39.9921875 72.9375 C-40.53746094 72.74414062 -41.08273437 72.55078125 -41.64453125 72.3515625 C-42.39863281 72.09117187 -43.15273438 71.83078125 -43.9296875 71.5625 C-44.66058594 71.30726563 -45.39148438 71.05203125 -46.14453125 70.7890625 C-66.12647017 64.81366787 -87.96136701 66.23438278 -106.3671875 76.125 C-108.59149341 77.3708137 -110.79217831 78.64875467 -112.9921875 79.9375 C-113.9821875 80.4325 -113.9821875 80.4325 -114.9921875 80.9375 C-116.0583127 79.07629837 -117.09426715 77.19779266 -118.1171875 75.3125 C-118.69726562 74.26835937 -119.27734375 73.22421875 -119.875 72.1484375 C-121.25278581 68.18850766 -120.73179422 66.68076088 -118.9921875 62.9375 C-116.06935468 57.30708173 -111.884382 53.32064873 -105.9921875 50.9375 C-102.64468372 50.24077074 -99.34430681 49.76101049 -95.9453125 49.39453125 C-93.1639321 48.96407952 -91.34500475 48.44924006 -88.9921875 46.9375 C-87.83503394 44.62319289 -87.85355294 43.22411984 -87.81640625 40.6484375 C-87.79255859 39.78863281 -87.76871094 38.92882812 -87.74414062 38.04296875 C-87.70173052 36.24632251 -87.67018179 34.44938149 -87.65039062 32.65234375 C-87.42117419 25.47733636 -85.81195887 20.2223883 -81.09765625 14.73046875 C-74.34853075 9.0809971 -68.70544161 6.33274027 -59.7734375 6.578125 C-54.30731331 7.28442195 -49.86967781 9.71494817 -45.3046875 12.6875 C-42.23092141 14.34899518 -40.43774047 14.51175883 -36.9921875 13.9375 C-34.78794133 12.12049908 -34.78794133 12.12049908 -33.47265625 10.57421875 C-31.59251318 8.4956437 -29.56758827 6.63329756 -27.4921875 4.75 C-26.76 4.07582031 -26.0278125 3.40164062 -25.2734375 2.70703125 C-18.38569696 -2.6356853 -8.04443225 -2.85650858 0 0 Z " fill="#5FA716" transform="translate(445.9921875,104.0625)"/>
<path d="M0 0 C3.30008038 2.29654717 5.37679997 4.73084318 7.48828125 8.125 C9.29097397 10.76656953 11.13633968 11.7548803 14.234375 12.359375 C19.47680299 11.59684002 23.28818923 8.70561702 27.671875 5.859375 C32.76412584 3.31324958 40.84259356 4.05475709 46.19921875 5.578125 C53.46710128 9.03769288 57.90219519 14.92896366 61.671875 21.859375 C62.60291661 24.65249982 62.7607888 26.12486384 62.6640625 28.984375 C62.63892578 30.16773438 62.63892578 30.16773438 62.61328125 31.375 C62.56900435 33.03147707 62.51691754 34.68776378 62.45703125 36.34375 C62.44285156 37.13265625 62.42867188 37.9215625 62.4140625 38.734375 C62.3919873 39.45367187 62.36991211 40.17296875 62.34716797 40.9140625 C62.77076231 43.45180665 63.66433358 44.30043786 65.671875 45.859375 C68.29401042 46.4736342 68.29401042 46.4736342 71.234375 46.734375 C79.75485325 48.00162872 87.13597738 50.90906423 92.48828125 57.9140625 C96.31613928 64.20539353 97.54209963 70.60750307 96.671875 77.859375 C94.691875 81.819375 92.711875 85.779375 90.671875 89.859375 C64.931875 89.859375 39.191875 89.859375 12.671875 89.859375 C14.35482485 78.07872603 16.02175585 66.43388473 18.12109375 54.7421875 C19.29110845 47.78876724 19.29110845 47.78876724 17.109375 41.421875 C13.72969696 39.25541472 11.61203513 39.29649498 7.671875 39.859375 C4.47370615 42.10199567 3.39901105 44.18713084 2.59106445 47.89013672 C2.30596602 49.52031843 2.03832576 51.15361799 1.78515625 52.7890625 C1.6378154 53.65701447 1.49047455 54.52496643 1.33866882 55.41921997 C0.87210836 58.18866367 0.42796285 60.9611687 -0.015625 63.734375 C-0.32469719 65.59269379 -0.63522855 67.45077051 -0.94726562 69.30859375 C-1.63465861 73.4190216 -2.30806294 77.53145489 -2.96903992 81.64620972 C-3.41346284 84.38534159 -3.8719258 87.12217982 -4.328125 89.859375 C-21.818125 89.859375 -39.308125 89.859375 -57.328125 89.859375 C-57.555 85.71375 -57.781875 81.568125 -58.015625 77.296875 C-58.70357094 66.70110879 -60.15532862 57.62982507 -64.328125 47.859375 C-64.823125 46.374375 -64.823125 46.374375 -65.328125 44.859375 C-64.22744504 44.04215783 -63.12242769 43.23078049 -62.015625 42.421875 C-61.09330078 41.74318359 -61.09330078 41.74318359 -60.15234375 41.05078125 C-56.04513937 38.36834584 -51.76122479 38.62068098 -47.01953125 38.43359375 C-43.43808936 37.66948351 -42.34856636 36.93925893 -40.328125 33.859375 C-39.66016302 29.75742194 -39.82139663 25.62101646 -39.83984375 21.4765625 C-39.72108224 14.28609312 -38.15787585 9.15588888 -33.43359375 3.65234375 C-22.57484617 -5.43715779 -12.57164998 -6.83949869 0 0 Z " fill="#A3C300" transform="translate(253.328125,166.140625)"/>
<path d="M0 0 C4.94906263 2.77993233 8.29183864 6.13652572 11.8125 10.5625 C13.93419679 13.1963305 14.83148592 13.67363504 18.125 14.25 C22.66076664 13.68302917 25.48343286 11.70951386 29.2578125 9.22265625 C34.58017327 6.052075 40.58887966 6.12403004 46.625 6.8125 C54.18030929 9.15574085 58.95357492 13.57877713 63.625 19.8125 C62.2318597 23.06551796 60.67539845 24.84636216 57.9375 27.0625 C43.09129093 39.70728204 36.41629697 55.97930936 32.625 74.8125 C31.614375 74.02875 30.60375 73.245 29.5625 72.4375 C20.50974727 65.69168777 11.21826074 59.3946867 1.1875 54.1875 C0.55005859 53.84477051 -0.08738281 53.50204102 -0.74414062 53.14892578 C-5.48410538 50.78017648 -9.08218573 50.36956321 -14.375 50.8125 C-17.08607713 52.18966666 -17.08607713 52.18966666 -18.375 54.8125 C-18.30273142 59.46414864 -18.30273142 59.46414864 -16.05932617 63.39868164 C-14.27204257 64.89892216 -12.58870834 65.85916729 -10.48828125 66.87109375 C-9.72201416 67.25112549 -8.95574707 67.63115723 -8.16625977 68.02270508 C-7.34826904 68.4277124 -6.53027832 68.83271973 -5.6875 69.25 C1.12940639 72.72804014 7.44808072 76.51712542 13.5625 81.125 C14.21758545 81.61605225 14.8726709 82.10710449 15.54760742 82.61303711 C19.10120825 85.36769754 21.95952296 88.14496393 24.625 91.8125 C23.33207031 91.98265625 22.03914063 92.1528125 20.70703125 92.328125 C1.25347572 94.99094058 -16.17893847 99.74921903 -31.375 112.8125 C-32.35146484 113.55693359 -32.35146484 113.55693359 -33.34765625 114.31640625 C-42.50294641 121.57875372 -49.17796329 132.47313224 -54.375 142.8125 C-59.17973817 138.51352375 -61.02617419 135.08172798 -61.7109375 128.6640625 C-61.79370093 121.82780307 -61.66750021 116.3466325 -57.375 110.8125 C-56.00117664 109.43600902 -54.6039778 108.08255721 -53.1875 106.75 C-50.38049868 104.06915604 -49.40356032 102.8927409 -48.0625 99.125 C-48.09637732 95.70149703 -48.09637732 95.70149703 -50.375 93.125 C-53.07692783 91.04226397 -55.69822716 89.4532158 -58.67578125 87.83203125 C-64.13588645 84.55596813 -68.07551231 78.96913942 -69.96484375 72.92578125 C-71.48760964 65.0799113 -70.77771347 58.4930062 -66.375 51.8125 C-65.7975 50.925625 -65.22 50.03875 -64.625 49.125 C-58.48417557 42.81359711 -52.36349061 41.06725186 -43.83496094 39.88818359 C-41.99990648 39.61708605 -40.18412775 39.22234816 -38.375 38.8125 C-35.75982669 34.88974004 -36.36103016 31.76155076 -36.5625 27.25 C-36.73679309 18.47521461 -35.58697022 12.42980626 -29.5078125 5.765625 C-21.00238777 -2.24337416 -10.85428607 -5.12788179 0 0 Z " fill="#5FA716" transform="translate(87.375,70.1875)"/>
<path d="M0 0 C0.78729225 -0.00265183 1.57458449 -0.00530365 2.38573408 -0.00803584 C5.05192314 -0.01576009 7.71806638 -0.0162892 10.3842659 -0.01688576 C12.30387373 -0.02089832 14.22348072 -0.02533619 16.14308667 -0.03016531 C21.44011707 -0.04215959 26.73713836 -0.04778585 32.03417969 -0.05234647 C37.73847683 -0.05829172 43.442763 -0.06990419 49.14705276 -0.08063698 C62.93353468 -0.1051849 76.72002024 -0.11979121 90.50651729 -0.13269705 C94.39804888 -0.1364071 98.28958011 -0.14038048 102.18111134 -0.14444971 C126.3283793 -0.16968325 150.47564681 -0.19176038 174.6229248 -0.20417786 C180.21892932 -0.20709928 185.8149338 -0.21006678 191.41093826 -0.21308327 C192.45380782 -0.21363963 192.45380782 -0.21363963 193.51774544 -0.21420723 C216.06432208 -0.22636543 238.61082071 -0.25731339 261.1573607 -0.29900479 C284.98505119 -0.34298497 308.81268996 -0.36870944 332.64042211 -0.37409842 C345.63314169 -0.37751727 358.62573819 -0.38932829 371.61841965 -0.42220116 C382.68102179 -0.45014426 393.74347565 -0.46122624 404.80611035 -0.4500057 C410.45342916 -0.44480444 416.10043714 -0.447801 421.74771118 -0.47247124 C426.91450187 -0.49485471 432.08075649 -0.49430898 437.24755588 -0.47526737 C439.11973774 -0.47245201 440.99195512 -0.47815044 442.86407956 -0.4930803 C445.40423568 -0.51210389 447.94246391 -0.5004549 450.48257446 -0.48101807 C451.21386566 -0.49386729 451.94515686 -0.50671651 452.6986084 -0.5199551 C456.52269746 -0.45541368 458.9943893 0.15852828 461.9623692 2.48423517 C464.49296951 5.13701439 464.49296951 5.13701439 464.99296951 8.19951439 C464.51295337 11.01960924 464.1489262 12.81867502 462.49296951 15.13701439 C458.82825723 17.65336928 454.9961439 17.4181225 450.71863937 17.39428329 C449.92675187 17.39778937 449.13486437 17.40129544 448.31898028 17.40490776 C445.64916512 17.41425711 442.97956641 17.40928938 440.30974197 17.40443993 C438.38285694 17.40817439 436.45597341 17.41277509 434.52909231 17.41817057 C429.22129992 17.43044088 423.91357036 17.43013538 418.60576701 17.42778182 C412.88654269 17.42737468 407.1673388 17.43840287 401.44812393 17.44789696 C390.23909805 17.46452926 379.0300932 17.47000748 367.82105601 17.47112171 C358.71410676 17.47207099 349.60716448 17.47617524 340.50021744 17.48252296 C318.90146984 17.49727222 297.30272876 17.50957208 275.70397568 17.50852585 C275.01304487 17.50849469 274.32211407 17.50846353 273.61024597 17.50843143 C270.10817261 17.50826521 266.60609926 17.50806713 263.1040259 17.50786202 C262.40847723 17.50782213 261.71292855 17.50778224 260.99630264 17.50774114 C259.58973425 17.50766026 258.18316586 17.50757667 256.77659746 17.50749035 C234.88401395 17.50626436 212.99149234 17.52128609 191.09892654 17.54863548 C166.51428719 17.57933516 141.92969245 17.59654396 117.34503222 17.59470904 C104.32336777 17.59404389 91.30177316 17.59959105 78.28012466 17.62106514 C67.19592865 17.63922657 56.11183414 17.64366578 45.02762973 17.63004629 C39.36844068 17.62349153 33.70944662 17.62348953 28.0502758 17.64075279 C22.87508992 17.65637788 17.70025536 17.65372892 12.52507859 17.63618453 C10.64761433 17.63309122 8.77012453 17.6368337 6.89269036 17.64790468 C4.35046122 17.66190928 1.80948448 17.65153259 -0.73270035 17.63479233 C-1.47027822 17.64472869 -2.2078561 17.65466505 -2.96778482 17.66490251 C-6.34733585 17.61749678 -8.19279883 17.37252225 -10.93042612 15.32074702 C-13.17566746 12.21089468 -13.50703049 9.95175325 -13.50703049 6.13701439 C-9.72510594 0.13809958 -6.64731536 -0.01074993 0 0 Z " fill="#9D9D9D" transform="translate(30.507030487060547,272.8629856109619)"/>
<path d="M0 0 C12.3301607 8.59637964 23.22537429 21.77108844 26 37 C26.12205329 39.67540816 26.04467313 42.31961238 26 45 C24.824375 44.67 23.64875 44.34 22.4375 44 C9.47938939 41.21309081 -2.2235662 42.60837984 -13.5625 49.57421875 C-24.39483654 57.42400317 -30.0299974 67.59588128 -32.25 80.625 C-32.51151458 82.41502223 -32.76575873 84.20620501 -33 86 C-33.74765625 86.25394531 -34.4953125 86.50789063 -35.265625 86.76953125 C-36.74289063 87.28580078 -36.74289063 87.28580078 -38.25 87.8125 C-39.22453125 88.14894531 -40.1990625 88.48539062 -41.203125 88.83203125 C-44.01482304 89.87063815 -44.01482304 89.87063815 -46.171875 91.63671875 C-48 93 -48 93 -51 93 C-52.578125 91.49609375 -52.578125 91.49609375 -54.25 89.4375 C-54.87132812 88.70402344 -55.49265625 87.97054687 -56.1328125 87.21484375 C-57.05707031 86.11849609 -57.05707031 86.11849609 -58 85 C-66.13529404 75.53607753 -77.1205676 70.05622849 -88.515625 65.421875 C-91 64 -91 64 -91.64038086 62.18041992 C-94.34268408 45.79598674 -91.21588108 29.82382163 -82 16 C-62.50115893 -9.5922289 -27.75389127 -17.67389493 0 0 Z " fill="#ED304B" transform="translate(229,103)"/>
<path d="M0 0 C13.46055277 -0.58129243 28.28167131 3.46828144 38.76953125 12.0625 C39.55328125 12.784375 40.33703125 13.50625 41.14453125 14.25 C40.63059589 17.07664449 39.99073319 19.7498437 39.14453125 22.5 C38.01132522 26.7495226 37.52112616 30.87951699 37.14453125 35.25 C36.40589844 35.518125 35.66726562 35.78625 34.90625 36.0625 C24.49928651 40.08247065 16.00259589 44.41061682 10.64453125 54.5 C8.12658324 58.70010655 6.20341279 60.52403102 1.56640625 61.8359375 C-2.51721906 62.75015873 -6.62606729 63.38263682 -10.78417969 63.84619141 C-12.92127547 64.16673788 -12.92127547 64.16673788 -14.93457031 65.29052734 C-16.85546875 66.25 -16.85546875 66.25 -19.85546875 66.25 C-21.1796875 64.52734375 -21.1796875 64.52734375 -22.54296875 62.1875 C-29.31194405 51.6451106 -38.63571243 46.993608 -50.60546875 43.9375 C-51.67796875 43.710625 -52.75046875 43.48375 -53.85546875 43.25 C-52.30597927 30.94417078 -43.74115331 20.05842112 -34.23046875 12.5625 C-23.43688418 4.86433245 -13.10798988 1.14762155 0 0 Z " fill="#ED304B" transform="translate(184.85546875,16.75)"/>
<path d="M0 0 C14.7252769 10.51805493 24.76779731 25.96306819 28.58349609 43.65869141 C29.25524059 47.83871033 29.18994334 51.96954551 29.10546875 56.19140625 C29.06421875 59.14078125 29.02296875 62.09015625 28.98046875 65.12890625 C23.04046875 65.12890625 17.10046875 65.12890625 10.98046875 65.12890625 C11.04234375 62.73640625 11.10421875 60.34390625 11.16796875 57.87890625 C11.26555077 43.97559023 7.33063149 31.15058508 -2.27734375 20.74609375 C-14.17476627 9.70229796 -27.75341595 5.57706327 -43.65234375 5.8515625 C-56.7468129 6.42150366 -69.09742852 13.80212931 -78.01953125 23.12890625 C-88.44774169 35.45539614 -89.83841456 49.68459222 -90.01953125 65.12890625 C-95.62953125 65.12890625 -101.23953125 65.12890625 -107.01953125 65.12890625 C-107.64111415 43.32746158 -103.95409817 26.34635969 -89.3515625 9.5546875 C-64.90415221 -15.87553326 -29.27992631 -17.90833009 0 0 Z " fill="#F04134" transform="translate(150.01953125,190.87109375)"/>
<path d="M0 0 C146.52 0 293.04 0 444 0 C444 42.33518313 444 42.33518313 441 59 C440.8767334 59.71494629 440.7534668 60.42989258 440.62646484 61.16650391 C435.29890439 90.51444404 418.39113655 117.73806759 398 139 C397.23429687 139.81726563 396.46859375 140.63453125 395.6796875 141.4765625 C379.4830227 158.298179 359.09497635 169.77956479 337.625 178.5625 C336.98836426 178.82627441 336.35172852 179.09004883 335.69580078 179.36181641 C334.15418177 179.97145089 332.57874015 180.4942106 331 181 C330.34 180.67 329.68 180.34 329 180 C330.70542969 179.09121094 330.70542969 179.09121094 332.4453125 178.1640625 C372.9950775 156.28475641 400.92834791 124.17021642 417 81 C417.41121094 79.94425781 417.82242187 78.88851562 418.24609375 77.80078125 C427.1520706 53.50860314 426.30004378 26.19842399 427 1 C286.42 1 145.84 1 1 1 C1 13.54 1 26.08 1 39 C0.67 39 0.34 39 0 39 C0 26.13 0 13.26 0 0 Z " fill="#0278BB" transform="translate(34,307)"/>
<path d="M0 0 C6.54698897 5.03945861 10.76678708 12.8091816 12.90625 20.68359375 C13.13671875 24.0078125 13.13671875 24.0078125 13.09375 27.37109375 C13.08730469 28.48871094 13.08085937 29.60632813 13.07421875 30.7578125 C12.90625 33.68359375 12.90625 33.68359375 11.90625 36.68359375 C-9.87375 36.68359375 -31.65375 36.68359375 -54.09375 36.68359375 C-56.70245791 31.46617792 -56.13168435 23.30555214 -54.53125 17.72070312 C-50.53547317 7.17749851 -44.10543122 0.2787236 -34.05078125 -4.58984375 C-22.30256918 -8.95145542 -10.34304369 -6.50299575 0 0 Z " fill="#F37B00" transform="translate(132.09375,219.31640625)"/>
<path d="M0 0 C9.39278802 8.12810098 15.92015595 17.12935356 20.20703125 28.859375 C20.20703125 30.179375 20.20703125 31.499375 20.20703125 32.859375 C19.5728125 32.69953125 18.93859375 32.5396875 18.28515625 32.375 C14.16162301 31.68425585 10.13129735 31.63550499 5.95703125 31.609375 C5.14878906 31.58875 4.34054687 31.568125 3.5078125 31.546875 C-4.34464155 31.49661929 -11.18731838 33.30155496 -17.66796875 37.859375 C-18.38726562 38.354375 -19.1065625 38.849375 -19.84765625 39.359375 C-21.65339962 40.75175543 -23.22748319 42.20527705 -24.79296875 43.859375 C-26.39730684 43.38078259 -28.00143291 42.90147942 -29.60546875 42.421875 C-30.49878906 42.15503906 -31.39210938 41.88820312 -32.3125 41.61328125 C-34.1476993 41.05549627 -35.97330601 40.46592925 -37.79296875 39.859375 C-37.80714844 38.55484375 -37.82132812 37.2503125 -37.8359375 35.90625 C-38.16036528 21.30420296 -40.02578867 10.8913789 -50.5 -0.00390625 C-53.43528366 -2.73917058 -56.41295985 -4.98317251 -59.79296875 -7.140625 C-45.24144546 -21.05947337 -13.07147005 -10.01841341 0 0 Z " fill="#EC304B" transform="translate(429.79296875,55.140625)"/>
<path d="M0 0 C12.80071324 9.32724661 22.25049998 23.26986724 25 39 C25.21826997 42.33996771 25.19179967 45.65487814 25.125 49 C25.11597656 49.87011719 25.10695313 50.74023438 25.09765625 51.63671875 C25.07434619 53.7579342 25.03848579 55.87900562 25 58 C19.06 58 13.12 58 7 58 C7.0825 55.793125 7.165 53.58625 7.25 51.3125 C7.38168453 39.39309411 4.0106151 28.99215292 -4 20 C-13.98992695 10.34430852 -25.49907284 7.5476015 -39.06640625 7.67578125 C-43.01250957 8.00103108 -45.85733522 8.8821046 -49.5 10.375 C-52.41796875 11.4921875 -52.41796875 11.4921875 -55 12 C-57.37619806 10.92279021 -58.65778418 9.67148305 -60.3984375 7.7421875 C-62.86729201 5.05655552 -65.79821412 3.69890679 -69 2 C-52.88692898 -17.44680985 -18.56663555 -12.00842925 0 0 Z " fill="#C51D1D" transform="translate(410,198)"/>
<path d="M0 0 C7.10100149 -0.61747839 13.40036964 1.22121993 19.08984375 5.61328125 C25.0254491 11.27281194 28.06159246 17.48678502 28.3125 25.6875 C28.2354141 33.15381975 25.19633522 39.65083139 20 45 C17.00690078 47.21229073 14.10439503 48.94981008 10.75 50.5625 C7.75432167 51.84806581 7.75432167 51.84806581 6 55 C5.82443453 57.2242148 5.82443453 57.2242148 6.125 59.5625 C6.18945312 60.34753906 6.25390625 61.13257813 6.3203125 61.94140625 C6.80254332 64.16504911 6.80254332 64.16504911 8.89453125 65.10546875 C9.58933594 65.40066406 10.28414063 65.69585937 11 66 C17.77614393 73.27195934 19.63527006 79.31356684 19.41015625 89.296875 C18.64816586 96.17655965 15.67184333 100.65966758 10.75 105.375 C4.85063091 109.99189755 -1.63665086 111.47000101 -9 111 C-8.41992188 110.30777344 -8.41992188 110.30777344 -7.828125 109.6015625 C0.05881737 99.7233624 2.35141728 90.66783065 1 78 C-0.82942001 70.64318798 -4.5940173 63.27065513 -11 59 C-11 58.34 -11 57.68 -11 57 C-9.49705948 56.04061307 -7.94499493 55.15770376 -6.375 54.3125 C2.28281717 49.2498781 6.71695914 42.61013621 9.5859375 33.046875 C11.77216921 22.23946539 8.69824013 12.81943234 2.75 3.8125 C1.84496642 2.53335601 0.93268475 1.25912442 0 0 Z " fill="#539213" transform="translate(467,145)"/>
<path d="M0 0 C6.33833153 -0.55115926 11.4912397 0.7686523 17 4 C22.43401317 8.84630792 26.59268235 13.7258096 27.30078125 21.15625 C27.30658203 22.81140625 27.30658203 22.81140625 27.3125 24.5 C27.32925781 25.6034375 27.34601563 26.706875 27.36328125 27.84375 C26.94989282 31.43533981 26.26607074 33.19277804 24 36 C21.3984375 37.51953125 21.3984375 37.51953125 18.375 38.8125 C7.14822805 44.141149 0.71289863 51.69017926 -4.3125 62.9375 C-5.35447113 67.57900778 -5.67952232 72.26030383 -6 77 C-7.89564426 77.79211929 -9.79152371 78.58367576 -11.6875 79.375 C-12.74324219 79.81585938 -13.79898437 80.25671875 -14.88671875 80.7109375 C-17.58356657 81.82757462 -20.28716264 82.92291801 -23 84 C-24.76281743 74.40007855 -23.51196044 65.60124022 -18.375 57.1875 C-13.14658848 50.05667142 -6.45104109 45.43504574 2 43 C3.32 43 4.64 43 6 43 C9.5969777 34.09319807 10.75475594 23.63222271 8.2734375 14.25390625 C7.32687641 12.03372027 6.27082972 10.05038022 5 8 C4.31744141 6.85337891 4.31744141 6.85337891 3.62109375 5.68359375 C2.44875542 3.76309648 1.24559635 1.87349943 0 0 Z " fill="#007700" transform="translate(348,60)"/>
<path d="M0 0 C17.08155699 2.39651695 32.16483556 11.82167227 43 25 C52.49373574 37.68831033 57.44063712 51.28762734 57.125 67.0625 C57.08375 70.011875 57.0425 72.96125 57 76 C51.06 76 45.12 76 39 76 C39.04125 73.56625 39.0825 71.1325 39.125 68.625 C39.16685403 62.15397409 38.56519174 56.29430677 37 50 C36.90203125 49.32582031 36.8040625 48.65164062 36.703125 47.95703125 C34.09356029 31.39872187 22.01848623 15.8361896 9 6 C6.07179058 4.1726547 3.09679046 2.52277167 0 1 C0 0.67 0 0.34 0 0 Z " fill="#C51D1D" transform="translate(122,180)"/>
<path d="M0 0 C7.09683703 3.27380646 11.16063935 7.69979571 15.01171875 14.375 C16.90358338 20.68121544 16.72647639 26.76596946 15.13671875 33.125 C3.25671875 33.125 -8.62328125 33.125 -20.86328125 33.125 C-20.20328125 29.825 -19.54328125 26.525 -18.86328125 23.125 C-18.71626711 20.56595734 -18.64581955 18.00058697 -18.67578125 15.4375 C-18.68222656 14.21675781 -18.68867188 12.99601563 -18.6953125 11.73828125 C-18.86240472 8.14385563 -19.2934844 4.67597399 -19.86328125 1.125 C-14.01175262 -2.39439765 -6.36381954 -1.94474158 0 0 Z " fill="#F27A00" transform="translate(384.86328125,222.875)"/>
<path d="M0 0 C1.52395925 1.32518196 3.00308866 2.70337307 4.4375 4.125 C5.27410156 4.86234375 6.11070312 5.5996875 6.97265625 6.359375 C15.61317807 14.33524129 23.71006731 25.46361454 26.4375 37.125 C26.02734375 39.40234375 26.02734375 39.40234375 25.4375 41.125 C25.025 40.33996094 24.6125 39.55492187 24.1875 38.74609375 C17.49425567 26.56976757 9.78637422 20.4525654 -3.25 15.8125 C-11.96981477 13.9980739 -20.81041167 14.14110977 -29.0625 17.5 C-31.98046875 18.6171875 -31.98046875 18.6171875 -34.5625 19.125 C-36.93869806 18.04779021 -38.22028418 16.79648305 -39.9609375 14.8671875 C-42.42979201 12.18155552 -45.36071412 10.82390679 -48.5625 9.125 C-38.98828731 -2.43008428 -13.12401549 -8.86757803 0 0 Z " fill="#EF4134" transform="translate(389.5625,190.875)"/>
<path d="M0 0 C7.11213895 -0.65853138 12.08838098 0.9663021 18 5 C20.58632919 7.49412495 22.84671653 10.12657868 25 13 C23.6068597 16.25301796 22.05039845 18.03386216 19.3125 20.25 C4.46629093 32.89478204 -2.20870303 49.16680936 -6 68 C-6.49628906 67.62488281 -6.99257812 67.24976563 -7.50390625 66.86328125 C-11.95741524 63.50836081 -16.45004098 60.22288764 -21 57 C-18.06372982 48.36709504 -14.71104827 41.12691232 -9 34 C-8.38125 33.21753906 -7.7625 32.43507812 -7.125 31.62890625 C-2.4194972 26.00317407 2.8301433 21.93201933 9 18 C7.14086809 11.10164214 4.20484217 5.75614317 0 0 Z " fill="#539213" transform="translate(126,77)"/>
<path d="M0 0 C10.85883015 1.72290416 19.11648286 5.58224998 28 12 C29.5159375 13.0828125 29.5159375 13.0828125 31.0625 14.1875 C39.42565236 21.48498752 47.23025832 33.95437087 49 45 C49 47.64 49 50.28 49 53 C43.39 52.01 37.78 51.02 32 50 C31.505 47.669375 31.01 45.33875 30.5 42.9375 C26.6428217 26.83083838 17.76541715 12.57056767 3.8125 3.3125 C3.07644531 2.87550781 2.34039062 2.43851562 1.58203125 1.98828125 C1.05996094 1.66214844 0.53789062 1.33601563 0 1 C0 0.67 0 0.34 0 0 Z " fill="#B8183A" transform="translate(206,95)"/>
<path d="M0 0 C59.26348697 -0.1143748 118.52697218 -0.20252312 177.79054598 -0.25532665 C184.78272746 -0.26156342 191.77490871 -0.26804618 198.76708984 -0.2746582 C199.81080805 -0.2756389 199.81080805 -0.2756389 200.87561148 -0.2766394 C223.43554948 -0.29795237 245.99542494 -0.33551354 268.55532503 -0.3814861 C292.39225259 -0.42997285 316.22913596 -0.45997641 340.06611192 -0.47044247 C354.3491451 -0.47731259 368.63199872 -0.49903283 382.91497664 -0.53958233 C392.70137598 -0.56595541 402.48768212 -0.57401332 412.27411444 -0.56750689 C417.92547464 -0.56429555 423.57652047 -0.56931415 429.22782516 -0.59602737 C434.3983884 -0.62029041 439.56842474 -0.62163268 444.73901181 -0.60449447 C446.61260261 -0.60237514 448.48622577 -0.6087764 450.35975249 -0.62441591 C452.90182337 -0.64440764 455.44197843 -0.63371652 457.98401833 -0.61523914 C458.71588122 -0.62837421 459.44774411 -0.64150928 460.20178467 -0.65504238 C464.02751794 -0.59196023 466.50039602 0.02028397 469.46974885 2.3470462 C472 5 472 5 472.5 8.0625 C472.01998386 10.88259485 471.65595669 12.68166063 470 15 C466.48179256 17.33993986 463.39490156 17.20789803 459.25 17.125 C458.07953125 17.10695313 456.9090625 17.08890625 455.703125 17.0703125 C454.81109375 17.04710937 453.9190625 17.02390625 453 17 C453.24363281 16.15308594 453.24363281 16.15308594 453.4921875 15.2890625 C454.01954131 12.91191379 454.13313234 10.80656882 454.125 8.375 C454.12886719 7.21097656 454.12886719 7.21097656 454.1328125 6.0234375 C454.12673369 3.93040752 454.12673369 3.93040752 453 2 C228.765 1.505 228.765 1.505 0 1 C0 0.67 0 0.34 0 0 Z " fill="#929292" transform="translate(23,273)"/>
<path d="M0 0 C7.04013539 -0.80001539 12.89144542 1.58517708 19 5 C25.34913294 10.1328667 27.9815501 16.28420974 29.3828125 24.1484375 C29.98516196 31.40282014 26.42469533 36.79273971 23 43 C17.72 43 12.44 43 7 43 C7.99 40.69 8.98 38.38 10 36 C12.38604637 26.65116334 11.47946746 17.55875195 7 9 C5.24823554 6.66306369 3.42453102 4.55466429 1.390625 2.4609375 C0 1 0 1 0 0 Z " fill="#8DA900" transform="translate(321,213)"/>
<path d="M0 0 C6.00782993 0.48169683 10.53200054 1.74623473 15.875 4.5 C16.56972412 4.85457275 17.26444824 5.20914551 17.98022461 5.57446289 C32.02615582 13.03876017 41.57576673 25.15786722 47 40 C47 41.32 47 42.64 47 44 C46.34644531 43.84660156 45.69289063 43.69320312 45.01953125 43.53515625 C41.24507841 42.86620406 37.51094004 42.64592703 33.6875 42.4375 C32.57665039 42.37272461 32.57665039 42.37272461 31.44335938 42.30664062 C29.62908536 42.20129568 27.8145645 42.10021684 26 42 C27.98 41.505 27.98 41.505 30 41 C23.52502231 24.8732587 15.23439851 10.37501447 0 1 C0 0.67 0 0.34 0 0 Z " fill="#B71839" transform="translate(403,44)"/>
<path d="M0 0 C-0.76183594 0.58394531 -0.76183594 0.58394531 -1.5390625 1.1796875 C-11.31834418 9.12764302 -16.07412205 19.24123411 -17.6875 31.625 C-17.790625 32.73875 -17.89375 33.8525 -18 35 C-19.10408203 35.38091797 -19.10408203 35.38091797 -20.23046875 35.76953125 C-21.20628906 36.11371094 -22.18210938 36.45789063 -23.1875 36.8125 C-24.15042969 37.14894531 -25.11335937 37.48539063 -26.10546875 37.83203125 C-28.94950298 38.97962401 -31.41871912 40.35307674 -34 42 C-36.53659232 34.39022304 -35.14836164 26.22998762 -32 19 C-27.37124422 10.42394415 -21.08627808 4.14504191 -11.796875 0.87109375 C-3.82652806 -1.27550935 -3.82652806 -1.27550935 0 0 Z " fill="#BA193A" transform="translate(214,154)"/>
<path d="M0 0 C8.14797103 -0.67899759 13.41878822 1.00177618 19.6875 6.25 C25.87288228 13.60558974 28.38966675 19.42319036 28 29 C27.73633436 32.01397105 27.38126734 34.99751967 27 38 C26.443125 37.79503906 25.88625 37.59007812 25.3125 37.37890625 C20.16382446 35.56121505 15.43723984 34.49429453 10 34 C10.04640625 33.11699219 10.0928125 32.23398438 10.140625 31.32421875 C10.52118211 18.67069483 7.4873267 10.10789104 0 0 Z " fill="#8DA800" transform="translate(288,171)"/>
<path d="M0 0 C7.07515536 -0.81289019 11.78730775 0.1915385 17.734375 4.15625 C22.85480792 8.32322299 26.66508092 13.45889652 28 20 C28.39769882 25.75051001 27.82737361 31.31180641 27 37 C25.865625 36.690625 24.73125 36.38125 23.5625 36.0625 C19.07538586 34.93068767 14.60292653 34.40488706 10 34 C10.04640625 33.12859375 10.0928125 32.2571875 10.140625 31.359375 C10.51484993 19.00995221 8.27728937 9.38092795 0 0 Z " fill="#529113" transform="translate(433,103)"/>
<path d="M0 0 C9.18627638 -0.61814196 15.89956188 0.71573172 23.3125 6.3125 C27.74165351 10.74165351 30.76960637 15.72508336 31.11352539 22.10644531 C31.10828857 22.83959961 31.10305176 23.57275391 31.09765625 24.328125 C31.09443359 25.12734375 31.09121094 25.9265625 31.08789062 26.75 C31.07951172 27.575 31.07113281 28.4 31.0625 29.25 C31.05798828 30.09046875 31.05347656 30.9309375 31.04882812 31.796875 C31.03707961 33.86461401 31.01914522 35.93231624 31 38 C30.28714844 37.79503906 29.57429688 37.59007812 28.83984375 37.37890625 C27.88207031 37.10949219 26.92429687 36.84007812 25.9375 36.5625 C24.99777344 36.29566406 24.05804688 36.02882812 23.08984375 35.75390625 C19.74164224 34.93696201 16.41648225 34.43932294 13 34 C13.06960938 32.44152344 13.06960938 32.44152344 13.140625 30.8515625 C13.45474692 20.8261387 12.86337447 12.7349552 6.5 4.5 C4.27305334 2.27305334 2.78516374 1.27456646 0 0 Z " fill="#007700" transform="translate(310,17)"/>
<path d="M0 0 C10.74878995 2.27165148 19.83648069 5.48096905 28 13 C27.48606464 15.82664449 26.84620194 18.4998437 26 21.25 C24.86679397 25.4995226 24.37659491 29.62951699 24 34 C23.18015625 34.33773437 22.3603125 34.67546875 21.515625 35.0234375 C20.43796875 35.46945313 19.3603125 35.91546875 18.25 36.375 C17.18265625 36.81585938 16.1153125 37.25671875 15.015625 37.7109375 C12.62444074 38.73307585 10.30616817 39.80213595 8 41 C6.17992526 39.17992526 6.78403535 36.4505449 6.75 34 C6.81548812 25.45847745 9.18163429 19.51907869 13 12 C12.31292969 11.38511719 11.62585938 10.77023438 10.91796875 10.13671875 C10.01691406 9.32847656 9.11585938 8.52023438 8.1875 7.6875 C7.29417969 6.88699219 6.40085938 6.08648437 5.48046875 5.26171875 C3.60073214 3.54775419 1.77407253 1.82122396 0 0 Z " fill="#B9193A" transform="translate(198,18)"/>
<path d="M0 0 C-0.67804688 0.40089844 -1.35609375 0.80179688 -2.0546875 1.21484375 C-17.46369088 10.62671424 -27.93526574 22.95542342 -36 39 C-39.80319625 35.59714019 -41.94859432 33.04674726 -43 28 C-42.37132666 21.39360216 -37.84080772 18.08484597 -33 14 C-10.2069824 -3.16768419 -10.2069824 -3.16768419 0 0 Z " fill="#529113" transform="translate(69,174)"/>
<path d="M0 0 C12.87439773 -0.85956661 12.87439773 -0.85956661 16.8125 2.125 C19 5 19 5 19.5 8.0625 C19.01998386 10.88259485 18.65595669 12.68166063 17 15 C13.48179256 17.33993986 10.39490156 17.20789803 6.25 17.125 C5.07953125 17.10695313 3.9090625 17.08890625 2.703125 17.0703125 C1.81109375 17.04710937 0.9190625 17.02390625 0 17 C0.24363281 16.14921875 0.24363281 16.14921875 0.4921875 15.28125 C1.01234091 12.94456082 1.13318559 10.89019234 1.125 8.5 C1.12886719 7.37078125 1.12886719 7.37078125 1.1328125 6.21875 C1.00158417 4.026465 0.60331338 2.10680863 0 0 Z " fill="#6E6E6E" transform="translate(476,273)"/>
<path d="M0 0 C-0.845625 0.94875 -1.69125 1.8975 -2.5625 2.875 C-4.4971233 5.04923261 -6.00100264 7.00190732 -7.359375 9.5859375 C-10.99481315 16.25090743 -10.99481315 16.25090743 -14.97363281 17.73730469 C-19.92164761 18.98342372 -24.92480136 19.55470698 -30 20 C-26.99806105 11.60622896 -20.84739771 5.97194105 -13 2 C-8.5246894 0.08200974 -4.85305914 -0.19412237 0 0 Z " fill="#B9193A" transform="translate(204,60)"/>
<path d="M0 0 C-0.886875 0.66 -1.77375 1.32 -2.6875 2 C-6.42023803 5.07662731 -8.65550011 8.81932099 -11 13 C-15.84688192 12.21824485 -20.3766367 10.60155722 -25 9 C-21.87404837 6.49624018 -18.63897717 4.67000367 -15.0625 2.875 C-14.04285156 2.35679687 -13.02320313 1.83859375 -11.97265625 1.3046875 C-7.70484577 -0.56843825 -4.48813521 -1.49604507 0 0 Z " fill="#007500" transform="translate(324,146)"/>
<path d="M0 0 C6.81598387 -0.33278764 11.92122066 -0.24201565 18 3 C17.01 3.66 16.02 4.32 15 5 C13.66209359 5.99387334 12.32781878 6.9926892 11 8 C7.56463819 6.57847097 6.19554667 4.92739556 4 2 C2.68684236 1.29442276 1.3548031 0.62187683 0 0 Z " fill="#4C8712" transform="translate(71,68)"/>
<path d="M0 0 C4.17882671 2.56428003 7.12505529 5.01930733 10 9 C7.03 9 4.06 9 1 9 C0.67 6.03 0.34 3.06 0 0 Z " fill="#529013" transform="translate(102,153)"/>
<path d="M0 0 C-1.32 1.32 -2.64 2.64 -4 4 C-6.31 3.34 -8.62 2.68 -11 2 C-10.67 1.34 -10.34 0.68 -10 0 C-6.18015204 -0.77811718 -3.73159669 -1.24386556 0 0 Z " fill="#A71634" transform="translate(409,95)"/>
<path d="M0 0 C0.99 0.33 1.98 0.66 3 1 C3.73046875 3.06640625 3.73046875 3.06640625 4.1875 5.5625 C4.34605469 6.38878906 4.50460938 7.21507812 4.66796875 8.06640625 C4.77753906 8.70449219 4.88710937 9.34257812 5 10 C2.35534962 6.8745041 1.15585285 3.91211733 0 0 Z " fill="#E13B2F" transform="translate(155,220)"/>
<path d="M0 0 C2.29633824 3.44450737 2.54016485 5.93812283 3 10 C0.86746245 7.40386733 -0.55075623 5.36932827 -1 2 C-0.67 1.34 -0.34 0.68 0 0 Z " fill="#E43B2F" transform="translate(413,222)"/>
</svg>
