<?xml version="1.0" encoding="UTF-8"?>
<svg version="1.1" xmlns="http://www.w3.org/2000/svg" width="512" height="512">
<path d="M0 0 C1.10988281 -0.02578125 2.21976563 -0.0515625 3.36328125 -0.078125 C15.78279073 1.14777253 25.62244933 15.04238429 33.9453125 23.41015625 C34.98455063 24.45126547 36.02401421 25.49214968 37.06369019 26.53282166 C39.76521851 29.23812086 42.46372721 31.94641169 45.16156006 34.65539551 C47.9287612 37.43292928 50.69888794 40.20754211 53.46875 42.98242188 C58.8778237 48.4021368 64.28370214 53.82502415 69.6875 59.25 C70.21891098 58.85045609 70.75032196 58.45091217 71.2978363 58.03926086 C72.35781578 57.2431263 72.35781578 57.2431263 73.43920898 56.4309082 C74.13561996 55.90761429 74.83203094 55.38432037 75.54954529 54.84516907 C86.52854833 46.65352406 97.74686031 38.9706241 109.6875 32.25 C110.39036133 31.85071289 111.09322266 31.45142578 111.81738281 31.04003906 C138.02468329 16.28331295 166.96747427 6.7445998 196.6875 2.25 C197.80995117 2.07339844 198.93240234 1.89679687 200.08886719 1.71484375 C211.70197743 0.0579414 223.21929945 -0.14873513 234.9375 -0.125 C235.94951477 -0.12445618 236.96152954 -0.12391235 238.00421143 -0.12335205 C254.53280572 -0.08261956 270.46663999 0.82075778 286.6875 4.25 C287.72938477 4.46962402 288.77126953 4.68924805 289.84472656 4.91552734 C316.07811621 10.63762978 340.95171652 20.10197734 364.06640625 33.79589844 C369.98370784 37.28460127 369.98370784 37.28460127 376.6875 37.25 C379.43356474 35.93661606 381.91431081 34.32120586 384.4375 32.625 C385.14414795 32.1707666 385.8507959 31.7165332 386.57885742 31.24853516 C389.61168637 29.29828991 392.60494809 27.30734949 395.56640625 25.25 C400.80188654 21.75407737 404.73203733 20.5917174 411.046875 20.6484375 C416.71349014 21.93935278 420.82582172 26.1370278 424.83496094 30.13867188 C425.31054947 30.61075577 425.786138 31.08283966 426.27613831 31.56922913 C427.82974888 33.11411464 429.37601956 34.66610748 430.921875 36.21875 C432.00680868 37.30233483 433.09203897 38.38562275 434.17755127 39.46862793 C436.44340898 41.73154727 438.70563542 43.99801865 440.96533203 46.26708984 C443.85924864 49.17242752 446.76208898 52.06865686 449.66769028 54.96230316 C451.90694433 57.19432713 454.14140936 59.4310964 456.37445831 61.66932678 C457.44309027 62.73929063 458.51320366 63.80777705 459.58483124 64.8747406 C461.08065719 66.36547948 462.56990938 67.86249332 464.05761719 69.36132812 C465.32952911 70.63562683 465.32952911 70.63562683 466.62713623 71.93566895 C470.65966169 76.46525689 471.3138291 80.2380642 471.1875 86.19921875 C470.12847767 92.66090971 466.0721483 97.721909 462.47265625 103.04736328 C461.63620992 104.28998117 460.80409253 105.53552392 459.97631836 106.78393555 C459.17683358 107.98419729 458.36309137 109.17511994 457.53344727 110.35473633 C454.94422666 114.20114424 453.8428283 116.65744725 454.6875 121.25 C456.25050863 124.69773296 458.1504065 127.9236546 460.0625 131.1875 C475.21392702 158.10440976 484.82419058 186.74764393 489.6875 217.25 C489.87368896 218.41297607 490.05987793 219.57595215 490.25170898 220.77416992 C491.89785009 232.28398268 492.04403832 243.69965545 492 255.3125 C491.99726578 256.80659393 491.99726578 256.80659393 491.99447632 258.33087158 C491.94973255 272.84330287 491.49219043 286.97309519 488.6875 301.25 C488.52652832 302.14557617 488.36555664 303.04115234 488.19970703 303.96386719 C479.39090196 352.65345832 455.9476479 397.67879928 421.6875 433.25 C421.05537598 433.90935547 420.42325195 434.56871094 419.77197266 435.24804688 C410.62752521 444.73630305 401.33015991 453.4762044 390.6875 461.25 C389.53644983 462.10806152 388.38540823 462.96613451 387.234375 463.82421875 C379.04319386 469.86236829 370.52945895 475.22095521 361.6875 480.25 C361.05569824 480.61448242 360.42389648 480.97896484 359.77294922 481.35449219 C333.74354716 496.25285669 304.32639511 505.89647542 274.6875 510.25 C273.48287109 510.42732666 272.27824219 510.60465332 271.03710938 510.78735352 C259.37982646 512.386325 247.81563902 512.6084053 236.0625 512.5625 C234.60766708 512.55976578 234.60766708 512.55976578 233.1234436 512.55697632 C218.77193945 512.51158309 204.80807082 512.0062347 190.6875 509.25 C189.79047363 509.08902832 188.89344727 508.92805664 187.96923828 508.76220703 C159.47761856 503.60667494 132.20392011 493.44824748 107.30688477 478.70361328 C101.39053586 475.21502885 101.39053586 475.21502885 94.6875 475.25 C91.94143526 476.56338394 89.46068919 478.17879414 86.9375 479.875 C86.23085205 480.3292334 85.5242041 480.7834668 84.79614258 481.25146484 C81.76331363 483.20171009 78.77005191 485.19265051 75.80859375 487.25 C70.57311346 490.74592263 66.64296267 491.9082826 60.328125 491.8515625 C54.66150986 490.56064722 50.54917828 486.3629722 46.54003906 482.36132812 C46.06445053 481.88924423 45.588862 481.41716034 45.09886169 480.93077087 C43.54525112 479.38588536 41.99898044 477.83389252 40.453125 476.28125 C39.36819132 475.19766517 38.28296103 474.11437725 37.19744873 473.03137207 C34.93159102 470.76845273 32.66936458 468.50198135 30.40966797 466.23291016 C27.51575136 463.32757248 24.61291102 460.43134314 21.70730972 457.53769684 C19.46805567 455.30567287 17.23359064 453.0689036 15.00054169 450.83067322 C13.93190973 449.76070937 12.86179634 448.69222295 11.79016876 447.6252594 C10.29434281 446.13452052 8.80509062 444.63750668 7.31738281 443.13867188 C6.46944153 442.2891394 5.62150024 441.43960693 4.74786377 440.56433105 C0.71533831 436.03474311 0.0611709 432.2619358 0.1875 426.30078125 C1.24652233 419.83909029 5.3028517 414.778091 8.90234375 409.45263672 C9.73879008 408.21001883 10.57090747 406.96447608 11.39868164 405.71606445 C12.19816642 404.51580271 13.01190863 403.32488006 13.84155273 402.14526367 C16.43220714 398.29672578 17.5360416 395.84440617 16.6875 391.25 C15.10331387 387.76082907 13.18408519 384.49238402 11.25 381.1875 C-2.61062625 356.58591059 -12.06504104 329.9923799 -17.3125 302.25 C-17.47621094 301.4353125 -17.63992187 300.620625 -17.80859375 299.78125 C-23.2272574 271.83706723 -22.79128986 239.13905345 -17.3125 211.25 C-17.15152832 210.35442383 -16.99055664 209.45884766 -16.82470703 208.53613281 C-8.98644114 165.21107811 10.52313946 124.96439629 38.6875 91.25 C33.89053236 85.42092073 28.65001184 80.10594774 23.28597641 74.80387688 C21.71054528 73.24605521 20.13887125 71.6845289 18.56814575 70.1219635 C14.10653597 65.68462267 9.63920561 61.25307403 5.16748047 56.82592773 C2.42006747 54.10539077 -0.32237682 51.3799249 -3.06188583 48.65143013 C-4.10052836 47.61896308 -5.14106028 46.58839289 -6.18356705 45.5598278 C-7.64282239 44.11993037 -9.09568103 42.67384512 -10.54736328 41.22631836 C-11.37309845 40.40804062 -12.19883362 39.58976288 -13.04959106 38.74668884 C-19.30447035 31.84562133 -20.6870287 26.58878571 -20.5859375 17.48046875 C-20.06332371 11.30616014 -17.29210243 7.96481681 -12.75 3.875 C-8.66143647 0.46938138 -5.25628706 0.07275138 0 0 Z " fill="#FBD158" transform="translate(20.3125,-0.25)"/>
<path d="M0 0 C0.99702942 0.00304138 1.99405884 0.00608276 3.02130127 0.00921631 C19.42297909 0.08284274 35.28109539 1.03509735 51.375 4.4375 C52.41688477 4.65712402 53.45876953 4.87674805 54.53222656 5.10302734 C80.76561621 10.82512978 105.63921652 20.28947734 128.75390625 33.98339844 C134.67120784 37.47210127 134.67120784 37.47210127 141.375 37.4375 C144.12106474 36.12411606 146.60181081 34.50870586 149.125 32.8125 C149.83164795 32.3582666 150.5382959 31.9040332 151.26635742 31.43603516 C154.29918637 29.48578991 157.29244809 27.49484949 160.25390625 25.4375 C165.48938654 21.94157737 169.41953733 20.7792174 175.734375 20.8359375 C181.40099014 22.12685278 185.51332172 26.3245278 189.52246094 30.32617188 C189.99804947 30.79825577 190.473638 31.27033966 190.96363831 31.75672913 C192.51724888 33.30161464 194.06351956 34.85360748 195.609375 36.40625 C196.69430868 37.48983483 197.77953897 38.57312275 198.86505127 39.65612793 C201.13090898 41.91904727 203.39313542 44.18551865 205.65283203 46.45458984 C208.54674864 49.35992752 211.44958898 52.25615686 214.35519028 55.14980316 C216.59444433 57.38182713 218.82890936 59.6185964 221.06195831 61.85682678 C222.13059027 62.92679063 223.20070366 63.99527705 224.27233124 65.0622406 C225.76815719 66.55297948 227.25740938 68.04999332 228.74511719 69.54882812 C230.01702911 70.82312683 230.01702911 70.82312683 231.31463623 72.12316895 C235.34716169 76.65275689 236.0013291 80.4255642 235.875 86.38671875 C234.81597767 92.84840971 230.7596483 97.909409 227.16015625 103.23486328 C226.32370992 104.47748117 225.49159253 105.72302392 224.66381836 106.97143555 C223.86433358 108.17169729 223.05059137 109.36261994 222.22094727 110.54223633 C219.63172666 114.38864424 218.5303283 116.84494725 219.375 121.4375 C220.93800863 124.88523296 222.8379065 128.1111546 224.75 131.375 C239.90142702 158.29190976 249.51169058 186.93514393 254.375 217.4375 C254.56118896 218.60047607 254.74737793 219.76345215 254.93920898 220.96166992 C256.58535009 232.47148268 256.73153832 243.88715545 256.6875 255.5 C256.68476578 256.99409393 256.68476578 256.99409393 256.68197632 258.51837158 C256.63723255 273.03080287 256.17969043 287.16059519 253.375 301.4375 C253.21402832 302.33307617 253.05305664 303.22865234 252.88720703 304.15136719 C244.07840196 352.84095832 220.6351479 397.86629928 186.375 433.4375 C185.74287598 434.09685547 185.11075195 434.75621094 184.45947266 435.43554688 C175.31502521 444.92380305 166.01765991 453.6637044 155.375 461.4375 C154.22394983 462.29556152 153.07290823 463.15363451 151.921875 464.01171875 C143.73069386 470.04986829 135.21695895 475.40845521 126.375 480.4375 C125.74319824 480.80198242 125.11139648 481.16646484 124.46044922 481.54199219 C98.43104716 496.44035669 69.01389511 506.08397542 39.375 510.4375 C38.17037109 510.61482666 36.96574219 510.79215332 35.72460938 510.97485352 C24.06732646 512.573825 12.50313902 512.7959053 0.75 512.75 C-0.70483292 512.74726578 -0.70483292 512.74726578 -2.1890564 512.74447632 C-16.54056055 512.69908309 -30.50442918 512.1937347 -44.625 509.4375 C-45.52202637 509.27652832 -46.41905273 509.11555664 -47.34326172 508.94970703 C-75.83488144 503.79417494 -103.10857989 493.63574748 -128.00561523 478.89111328 C-133.92196414 475.40252885 -133.92196414 475.40252885 -140.625 475.4375 C-143.37106474 476.75088394 -145.85181081 478.36629414 -148.375 480.0625 C-149.08164795 480.5167334 -149.7882959 480.9709668 -150.51635742 481.43896484 C-153.54918637 483.38921009 -156.54244809 485.38015051 -159.50390625 487.4375 C-164.73938654 490.93342263 -168.66953733 492.0957826 -174.984375 492.0390625 C-180.65099014 490.74814722 -184.76332172 486.5504722 -188.77246094 482.54882812 C-189.24804947 482.07674423 -189.723638 481.60466034 -190.21363831 481.11827087 C-191.76724888 479.57338536 -193.31351956 478.02139252 -194.859375 476.46875 C-195.94430868 475.38516517 -197.02953897 474.30187725 -198.11505127 473.21887207 C-200.38090898 470.95595273 -202.64313542 468.68948135 -204.90283203 466.42041016 C-207.79674864 463.51507248 -210.69958898 460.61884314 -213.60519028 457.72519684 C-215.84444433 455.49317287 -218.07890936 453.2564036 -220.31195831 451.01817322 C-221.38059027 449.94820937 -222.45070366 448.87972295 -223.52233124 447.8127594 C-225.01815719 446.32202052 -226.50740938 444.82500668 -227.99511719 443.32617188 C-228.84305847 442.4766394 -229.69099976 441.62710693 -230.56463623 440.75183105 C-234.59716169 436.22224311 -235.2513291 432.4494358 -235.125 426.48828125 C-234.06597767 420.02659029 -230.0096483 414.965591 -226.41015625 409.64013672 C-225.57370992 408.39751883 -224.74159253 407.15197608 -223.91381836 405.90356445 C-223.11433358 404.70330271 -222.30059137 403.51238006 -221.47094727 402.33276367 C-218.88029286 398.48422578 -217.7764584 396.03190617 -218.625 391.4375 C-220.20918613 387.94832907 -222.12841481 384.67988402 -224.0625 381.375 C-237.92312625 356.77341059 -247.37754104 330.1798799 -252.625 302.4375 C-252.78871094 301.6228125 -252.95242187 300.808125 -253.12109375 299.96875 C-258.5397574 272.02456723 -258.10378986 239.32655345 -252.625 211.4375 C-252.46402832 210.54192383 -252.30305664 209.64634766 -252.13720703 208.72363281 C-244.22553904 164.99285698 -224.46615112 124.15834083 -195.625 90.4375 C-190.18766945 94.96741796 -185.16041069 99.78044216 -180.1875 104.8125 C-179.45595703 105.54855469 -178.72441406 106.28460938 -177.97070312 107.04296875 C-176.18647277 108.83886074 -174.40463876 110.63705985 -172.625 112.4375 C-174.05804661 116.68270798 -176.16377714 119.55339261 -179 123 C-213.93379973 167.10521028 -228.0265612 226.87899437 -222.08984375 282.32421875 C-221.56552652 286.31167969 -220.87770357 290.25330966 -220.078125 294.19433594 C-219.60991899 296.51215749 -219.19365089 298.83571583 -218.78125 301.1640625 C-211.12420116 342.5748056 -189.56320515 381.20523383 -160.625 411.4375 C-160.10454102 411.99050781 -159.58408203 412.54351562 -159.04785156 413.11328125 C-150.01747878 422.67802755 -140.30869352 430.77869235 -129.625 438.4375 C-129.0160791 438.8804541 -128.4071582 439.3234082 -127.77978516 439.77978516 C-106.1814191 455.37494378 -80.55373445 467.26675091 -54.625 473.4375 C-53.9252002 473.60588379 -53.22540039 473.77426758 -52.50439453 473.94775391 C-34.94357319 478.10778584 -17.89606533 479.60986685 0.125 479.625 C0.81829407 479.62608765 1.51158813 479.62717529 2.22589111 479.6282959 C15.38560442 479.6259584 28.55942557 479.34756056 41.5 476.75 C42.37978516 476.57629883 43.25957031 476.40259766 44.16601562 476.22363281 C86.40423937 467.56284564 127.6046802 448.26884194 157.375 416.4375 C162.375 411.4375 162.375 411.4375 163.92456055 409.94506836 C168.22821544 405.75310108 172.00604347 401.3532877 175.625 396.5625 C176.4607959 395.45938477 176.4607959 395.45938477 177.31347656 394.33398438 C207.29200174 354.28308376 223.5756528 306.85192488 223.625 256.75 C223.62600708 256.03328125 223.62701416 255.3165625 223.62805176 254.578125 C223.57264759 195.75845283 200.46753755 139.53003755 158.828125 97.890625 C157.29409178 96.35659178 155.77990949 94.80214021 154.296875 93.21875 C132.90699718 70.75168409 103.40756064 54.61329593 74.375 44.4375 C73.14523437 43.98890625 71.91546875 43.5403125 70.6484375 43.078125 C62.1584598 40.18259576 53.56042711 38.35344097 44.75 36.6875 C43.64213135 36.47657715 42.5342627 36.2656543 41.39282227 36.04833984 C27.88321195 33.61670973 14.37755032 33.22936202 0.6875 33.25 C-0.43109909 33.25090637 -0.43109909 33.25090637 -1.57229614 33.25183105 C-53.65064603 33.36607615 -100.59921702 51.80868407 -141.625 83.4375 C-145.29252005 81.8983199 -147.61080573 79.68264548 -150.390625 76.8671875 C-151.28007812 75.97128906 -152.16953125 75.07539062 -153.0859375 74.15234375 C-154.00632812 73.21519531 -154.92671875 72.27804688 -155.875 71.3125 C-156.81984856 70.35761363 -157.76515633 69.40318141 -158.7109375 68.44921875 C-161.02018338 66.11640913 -163.32463203 63.77905914 -165.625 61.4375 C-137.15215898 32.45982137 -94.90230283 14.20150628 -55.8125 5.5625 C-55.00449951 5.38364258 -54.19649902 5.20478516 -53.36401367 5.02050781 C-50.45902642 4.42678779 -47.55064811 3.92075807 -44.625 3.4375 C-43.87504761 3.31361908 -43.12509521 3.18973816 -42.35241699 3.06210327 C-28.1890162 0.78072372 -14.33540969 -0.09365219 0 0 Z " fill="#505558" transform="translate(255.625,-0.4375)"/>
<path d="M0 0 C5.43733055 4.52991796 10.46458931 9.34294216 15.4375 14.375 C16.16904297 15.11105469 16.90058594 15.84710938 17.65429688 16.60546875 C19.43852723 18.40136074 21.22036124 20.19955985 23 22 C21.56695339 26.24520798 19.46122286 29.11589261 16.625 32.5625 C-18.29058944 76.64471912 -32.66302867 136.79182011 -26.39453125 192.23828125 C-25.55154609 198.42182211 -24.35206248 204.48458449 -22.94921875 210.5625 C-22.05417709 214.52869604 -21.57469187 218.44937738 -21.1875 222.5 C-18.52922728 245.80529155 -8.25414075 270.26911922 3.5390625 290.3984375 C4.16953491 291.47774536 4.16953491 291.47774536 4.81274414 292.57885742 C5.62303823 293.94602094 6.44950428 295.30377766 7.29467773 296.6496582 C9.01639677 299.52371185 9.99468954 301.59587435 10.0390625 304.97265625 C8.66519088 308.97547769 6.63473648 312.2312941 4.3125 315.75 C3.40491778 317.17315786 2.49736563 318.59633491 1.58984375 320.01953125 C0.08452991 322.34742097 -1.44204835 324.65312427 -2.99609375 326.94921875 C-6.06546679 331.63792529 -7.66631321 335.14197951 -7.6015625 340.796875 C-5.55310986 348.29900027 1.48386987 353.73879998 6.796875 358.9921875 C7.75566659 359.94724328 8.71401338 360.90274578 9.67193604 361.8586731 C12.17948759 364.35863286 14.69298896 366.85252456 17.20782471 369.34515381 C19.77892576 371.8956999 22.34428867 374.45200347 24.91015625 377.0078125 C29.93453773 382.01082279 34.96523444 387.00743805 40 392 C37.60770136 397.13283081 34.25967784 399.03151111 29 401 C21.81547254 402.16103551 17.91285717 401.25522531 12 397 C10.24209869 395.41592952 8.52734867 393.78300665 6.85253906 392.11132812 C6.37695053 391.63924423 5.901362 391.16716034 5.41136169 390.68077087 C3.85775112 389.13588536 2.31148044 387.58389252 0.765625 386.03125 C-0.31930868 384.94766517 -1.40453897 383.86437725 -2.49005127 382.78137207 C-4.75590898 380.51845273 -7.01813542 378.25198135 -9.27783203 375.98291016 C-12.17174864 373.07757248 -15.07458898 370.18134314 -17.98019028 367.28769684 C-20.21944433 365.05567287 -22.45390936 362.8189036 -24.68695831 360.58067322 C-25.75559027 359.51070937 -26.82570366 358.44222295 -27.89733124 357.3752594 C-29.39315719 355.88452052 -30.88240938 354.38750668 -32.37011719 352.88867188 C-33.21805847 352.0391394 -34.06599976 351.18960693 -34.93963623 350.31433105 C-38.97216169 345.78474311 -39.6263291 342.0119358 -39.5 336.05078125 C-38.44097767 329.58909029 -34.3846483 324.528091 -30.78515625 319.20263672 C-29.94870992 317.96001883 -29.11659253 316.71447608 -28.28881836 315.46606445 C-27.48933358 314.26580271 -26.67559137 313.07488006 -25.84594727 311.89526367 C-23.25529286 308.04672578 -22.1514584 305.59440617 -23 301 C-24.58418613 297.51082907 -26.50341481 294.24238402 -28.4375 290.9375 C-42.29812625 266.33591059 -51.75254104 239.7423799 -57 212 C-57.16371094 211.1853125 -57.32742187 210.370625 -57.49609375 209.53125 C-62.9147574 181.58706723 -62.47878986 148.88905345 -57 121 C-56.83902832 120.10442383 -56.67805664 119.20884766 -56.51220703 118.28613281 C-48.60053904 74.55535698 -28.84115112 33.72084083 0 0 Z " fill="#373C42" transform="translate(60,90)"/>
<path d="M0 0 C1.10988281 -0.02578125 2.21976563 -0.0515625 3.36328125 -0.078125 C15.62369019 1.13206813 25.522303 14.93254004 33.69921875 23.12890625 C34.72176355 24.15077481 35.74445653 25.17249512 36.76728821 26.19407654 C38.89246298 28.31779071 41.01585398 30.44326739 43.13793945 32.57006836 C45.83737894 35.27521879 48.54130503 37.97583307 51.24658489 40.67514133 C53.35296202 42.77788072 55.45692196 44.8830258 57.5601902 46.98887444 C58.5556617 47.98500558 59.55185581 48.9804152 60.54883385 49.97503853 C69.23118379 58.64136089 69.23118379 58.64136089 72.99609375 63.04980469 C78.45410113 69.40406505 84.46606786 75.2568714 90.36328125 81.19921875 C91.34440919 82.1883322 91.34440919 82.1883322 92.34535789 83.19742775 C95.80312863 86.68176936 99.26446017 90.16253312 102.72827148 93.64086914 C105.57779011 96.50375202 108.41985171 99.37373689 111.25561523 102.25024414 C114.70195758 105.74607146 118.16057 109.2293059 121.62819481 112.70401955 C122.93885951 114.02136126 124.24529553 115.34292544 125.54720497 116.66892052 C134.81957105 126.10308057 143.2422463 134.1478822 157.16015625 134.49609375 C158.22556641 134.52896484 159.29097656 134.56183594 160.38867188 134.59570312 C162.60212957 134.656152 164.81567381 134.71352301 167.02929688 134.76757812 C177.67848315 135.10615453 187.13043874 136.63469847 197 140.6875 C197.75861328 140.98720703 198.51722656 141.28691406 199.29882812 141.59570312 C203.53678446 143.29015054 207.63407021 145.14273205 211.6875 147.25 C209.22343436 149.71406564 207.69537536 149.83886656 204.3125 150.5625 C188.33267649 154.40526708 174.06431329 162.5600102 161.6875 173.25 C161.14834961 173.68562256 160.60919922 174.12124512 160.05371094 174.57006836 C155.6730778 178.16724672 152.17843 182.01032917 148.8125 186.5625 C148.30074219 187.25182617 147.78898438 187.94115234 147.26171875 188.65136719 C137.61707572 201.98189935 131.38306247 216.23589596 127.6875 232.25 C116.35228451 218.31918445 114.49983946 198.8446158 114.34570312 181.67382812 C113.99487901 168.20381367 108.77418281 159.00300858 99.39355469 149.71313477 C98.77183884 149.08952057 98.15012299 148.46590637 97.50956726 147.82339478 C95.4643483 145.77448826 93.4120458 143.73284502 91.359375 141.69140625 C89.92657568 140.25980047 88.4941474 138.82782325 87.06207275 137.39549255 C84.06253319 134.39751463 81.05967309 131.40291721 78.05419922 128.41088867 C74.21837345 124.59201357 70.3891238 120.76662838 66.56214523 116.9388895 C63.60432209 113.98133953 60.64388988 111.0264128 57.6825943 108.07234001 C56.27073537 106.66364466 54.85946491 105.25435925 53.44881439 103.84445381 C44.27895593 94.65352192 44.27895593 94.65352192 34.63494873 85.96961975 C30.080135 81.94766655 25.84394942 77.57130102 21.546875 73.27734375 C20.49178976 72.22547992 19.43663298 71.17368784 18.38140869 70.1219635 C16.18447046 67.93097226 13.9895669 65.73796592 11.79589844 63.54370117 C8.99468503 60.74238572 6.18662574 57.94804168 3.37679672 55.15537167 C1.20113719 52.99085834 -0.96993414 50.82178709 -3.13976288 48.65143013 C-4.17310813 47.6192586 -5.20806067 46.5886934 -6.24469757 45.5598278 C-7.69432681 44.12006353 -9.13740388 42.67401914 -10.57910156 41.22631836 C-11.39880432 40.40804062 -12.21850708 39.58976288 -13.06304932 38.74668884 C-19.29528633 31.8294638 -20.68705293 26.59096943 -20.5859375 17.48046875 C-20.06332371 11.30616014 -17.29210243 7.96481681 -12.75 3.875 C-8.66143647 0.46938138 -5.25628706 0.07275138 0 0 Z " fill="#DBE9FB" transform="translate(20.3125,-0.25)"/>
<path d="M0 0 C6.41069287 5.27101414 12.18590512 11.09128152 18 17 C16.62213999 20.79252557 14.84851979 23.89126546 12.625 27.25 C-6.02685088 56.63704691 -19.10505637 94.83625821 -19.16796875 129.91796875 C-19.17224884 130.64887726 -19.17652893 131.37978577 -19.18093872 132.13284302 C-19.19087534 134.48445865 -19.19099968 136.83586746 -19.1875 139.1875 C-19.18656342 139.99367767 -19.18562683 140.79985535 -19.18466187 141.63046265 C-19.04296792 197.85364418 -0.06994248 254.4308924 40.03515625 295.13671875 C41.7604337 296.8377307 43.50243697 298.52215869 45.26953125 300.1796875 C47 302 47 302 47 304 C47.82564453 304.34224609 47.82564453 304.34224609 48.66796875 304.69140625 C51.67664639 306.3796927 53.82830353 308.54263839 56.3125 310.9375 C91.53605802 344.02862854 141.12559228 363.30883507 189 366 C189 366.33 189 366.66 189 367 C124.26098021 367.75325092 65.68994136 350.70824551 18 305 C17.41460449 304.44715332 16.82920898 303.89430664 16.22607422 303.32470703 C6.36155492 293.9743164 -2.10108447 284.05318046 -10 273 C-10.44150391 272.3925293 -10.88300781 271.78505859 -11.33789062 271.15917969 C-37.04663478 235.55790034 -51.6061787 190.82972486 -51.25 146.9375 C-51.24623352 146.2245578 -51.24246704 145.5116156 -51.23858643 144.77706909 C-50.90548694 90.56550475 -33.59070083 42.38145871 0 0 Z " fill="#F7AF44" transform="translate(83,113)"/>
<path d="M0 0 C6.26498179 5.17650066 11.98259464 10.83635958 17.71875 16.5859375 C18.74558208 17.61209422 19.77256243 18.6381026 20.79968262 19.66397095 C22.94278946 21.8056111 25.08409718 23.94902938 27.22412109 26.09375 C29.94719861 28.8225169 32.6747325 31.54677809 35.40364838 34.26970482 C37.52290012 36.38531686 39.63973213 38.50333722 41.75587463 40.62205887 C42.75971909 41.62656357 43.76428786 42.63034505 44.76963806 43.63334274 C53.55039532 52.39805549 53.55039532 52.39805549 57.31518555 56.80639648 C62.77036788 63.15892426 68.78080093 69.00912156 74.67578125 74.94921875 C75.65690919 75.9383322 75.65690919 75.9383322 76.65785789 76.94742775 C80.11562863 80.43176936 83.57696017 83.91253312 87.04077148 87.39086914 C89.89029011 90.25375202 92.73235171 93.12373689 95.56811523 96.00024414 C99.01445758 99.49607146 102.47307 102.9793059 105.94069481 106.45401955 C107.25135951 107.77136126 108.55779553 109.09292544 109.85970497 110.41892052 C119.13207105 119.85308057 127.5547463 127.8978822 141.47265625 128.24609375 C142.53806641 128.27896484 143.60347656 128.31183594 144.70117188 128.34570312 C146.91462957 128.406152 149.12817381 128.46352301 151.34179688 128.51757812 C161.99098315 128.85615453 171.44293874 130.38469847 181.3125 134.4375 C182.07111328 134.73720703 182.82972656 135.03691406 183.61132812 135.34570312 C187.84928446 137.04015054 191.94657021 138.89273205 196 141 C193.53593436 143.46406564 192.00787536 143.58886656 188.625 144.3125 C172.60633398 148.16460778 158.43553201 156.33776588 146 167 C145.38898438 167.47824219 144.77796875 167.95648438 144.1484375 168.44921875 C139.3101914 172.30435092 135.63557684 176.95477521 131.8203125 181.8046875 C131.21960938 182.52914062 130.61890625 183.25359375 130 184 C129.67 184 129.34 184 129 184 C129.03480469 182.96101562 129.06960937 181.92203125 129.10546875 180.8515625 C129.41703649 167.68031314 127.7666029 157.5176718 118.60276413 147.33667946 C115.55211297 144.15840313 112.41547462 141.06688052 109.28076172 137.97192383 C108.08227589 136.77756388 106.88446879 135.58252253 105.68728638 134.38685608 C103.11889959 131.82453939 100.54589316 129.26698897 97.96914291 126.71308327 C93.89386885 122.67373133 89.82964461 118.62338132 85.76687622 114.57145691 C77.87817986 106.70684003 69.97822269 98.85358988 62.07719421 91.00136566 C52.01166006 80.99675211 41.9517917 70.98645878 31.90093434 60.96710032 C27.86148436 56.94103017 23.81684818 52.92026554 19.76803946 48.90360796 C17.25188 46.40555757 14.73983142 43.90340379 12.22883224 41.40016747 C11.06437179 40.24104613 9.89817798 39.08366311 8.73012543 37.92816162 C7.13499187 36.34972214 5.54616642 34.76518597 3.95870972 33.17903137 C3.06829924 32.29436093 2.17788876 31.40969049 1.26049614 30.49821186 C-3.76810366 24.94080017 -5.39164996 19.87831196 -5.3671875 12.52734375 C-4.693878 7.89296881 -2.33766968 3.99908492 0 0 Z " fill="#EAF2FD" transform="translate(36,6)"/>
<path d="M0 0 C8.38220562 5.04901312 13.61881239 11.48367163 16.4375 20.9375 C17.78414212 30.08049121 15.98881685 37.81509367 10.7421875 45.3828125 C5.26934746 52.09645838 -0.49815406 56.33150989 -9.21875 57.375 C-20.21467852 57.72686971 -27.68438181 55.46357905 -35.76953125 48.0078125 C-41.79745311 41.047467 -43.94440106 33.07278776 -43.8359375 24.0703125 C-43.11461065 15.80596771 -38.53432317 9.46384443 -32.5625 3.9375 C-23.34262782 -2.89266266 -10.68843485 -5.03082196 0 0 Z " fill="#CF3736" transform="translate(257.5625,366.0625)"/>
<path d="M0 0 C4.50384433 -0.24020503 6.62933931 -0.23814302 10.44921875 2.359375 C12.65801235 5.74619186 13.08278311 7.27298334 12.32421875 11.234375 C10.45711965 13.53713056 8.96774134 14.91261371 6.32421875 16.234375 C4.62428489 16.32869932 2.92380752 16.41775567 1.22216797 16.47338867 C-23.0101728 17.3272794 -44.88574507 27.88804244 -61.67578125 45.234375 C-75.49345841 60.98114345 -83.41302901 80.56085788 -84.19335938 101.43945312 C-84.52984807 108.20097114 -84.52984807 108.20097114 -86.67578125 111.234375 C-90.16446776 113.56016601 -91.57296644 113.65302957 -95.67578125 113.234375 C-98.81169695 111.45453095 -99.51680861 110.71129293 -100.67578125 107.234375 C-101.9661028 80.99783679 -91.47329308 55.92927424 -74.67578125 36.234375 C-73.91265625 35.22375 -73.14953125 34.213125 -72.36328125 33.171875 C-68.2313325 28.65555893 -63.50469511 24.97924698 -58.67578125 21.234375 C-57.51755859 20.31785156 -57.51755859 20.31785156 -56.3359375 19.3828125 C-39.68896418 6.91892478 -20.35984833 1.78334438 0 0 Z " fill="#F8B045" transform="translate(246.67578125,145.765625)"/>
<path d="M0 0 C0 0.33 0 0.66 0 1 C-0.74757568 1.08975098 -1.49515137 1.17950195 -2.26538086 1.27197266 C-37.5852433 5.60037396 -70.42263462 14.31556077 -102 31 C-102.97984863 31.51385254 -102.97984863 31.51385254 -103.97949219 32.03808594 C-122.28172501 41.71689117 -138.48170053 54.06517305 -153.76171875 67.98046875 C-156.44612148 70.40252147 -159.19881784 72.71482508 -162 75 C-166.32504836 73.34136495 -169.09418825 70.128959 -172.25 66.875 C-172.80429688 66.31167969 -173.35859375 65.74835938 -173.9296875 65.16796875 C-175.29104485 63.78313972 -176.64614859 62.39216796 -178 61 C-146.7667562 29.21297528 -100.06537896 10.75037175 -57 3 C-56.15324707 2.83773926 -55.30649414 2.67547852 -54.43408203 2.50830078 C-36.42349894 -0.86803023 -18.24171425 -0.303251 0 0 Z " fill="#373C42" transform="translate(268,0)"/>
<path d="M0 0 C1.58788921 0.00502753 3.17577996 0.00958821 4.76367188 0.01367188 C8.61332025 0.02457245 12.46289253 0.04176717 16.3125 0.0625 C16.3125 0.3925 16.3125 0.7225 16.3125 1.0625 C15.4935022 1.11410278 15.4935022 1.11410278 14.65795898 1.16674805 C-36.49208924 4.59517797 -82.46732052 25.32659349 -120.6875 59.0625 C-122.31228755 60.47941032 -123.93724564 61.89612516 -125.5625 63.3125 C-126.60485852 64.22837987 -127.64685977 65.14466824 -128.6875 66.0625 C-133.97762124 61.65406563 -138.87558428 56.98690206 -143.6875 52.0625 C-108.33112037 15.1170696 -49.45136754 -0.27447088 0 0 Z " fill="#F6AF44" transform="translate(256.6875,31.9375)"/>
<path d="M0 0 C1.63671875 1.1015625 1.63671875 1.1015625 3 3 C3.91834374 10.6824885 3.35577541 18.62305757 1 26 C0.61521484 27.21429688 0.61521484 27.21429688 0.22265625 28.453125 C-3.7939484 39.69272256 -11.49797027 48.30958349 -22.0625 53.75 C-32.62363662 58.72653559 -32.62363662 58.72653559 -38 58 C-39.6171875 56.91015625 -39.6171875 56.91015625 -41 55 C-42.89611535 41.36846804 -39.18374016 28.01586597 -31 17 C-24.24034355 8.53997636 -11.47893856 -1.14789386 0 0 Z " fill="#A1D84C" transform="translate(342,156)"/>
<path d="M0 0 C0.7518457 -0.00547852 1.50369141 -0.01095703 2.27832031 -0.01660156 C16.45553422 0.16348569 27.11948143 6.30638095 36.875 16.3125 C39.05748357 18.90723047 39.81585071 19.90690487 40.3125 23.3125 C39.75992728 27.10157011 38.81699632 27.91673753 35.875 30.3125 C23.04360716 35.47693637 7.80133189 36.74502696 -5.125 31.3125 C-12.49588103 27.48004741 -21.28433622 21.99382755 -25.125 14.3125 C-25.5625 10.9375 -25.5625 10.9375 -25.125 7.3125 C-22.98852038 5.28846668 -21.73553865 4.4539501 -19.125 3.3125 C-18.46757813 3.0134375 -17.81015625 2.714375 -17.1328125 2.40625 C-11.47436208 0.29167337 -5.97193074 0.0317526 0 0 Z " fill="#A1D84C" transform="translate(136.125,298.6875)"/>
<path d="M0 0 C5.62535342 3.15019791 10.45852707 8.49890135 12.875 14.5 C13.70140763 20.81074916 13.12702173 26.96122094 9.875 32.5 C5.5952701 38.00724933 0.82716937 41.67618117 -6.21484375 42.84765625 C-12.6687561 43.2900158 -17.89499573 41.21418947 -23.125 37.5 C-29.28117775 30.9824272 -30.60951443 26.03595413 -30.52734375 17.125 C-29.92457157 11.69419826 -27.97219047 8.31479308 -24.125 4.5 C-16.93442058 -1.11975604 -8.74687352 -3.8704489 0 0 Z " fill="#E94642" transform="translate(243.125,251.5)"/>
<path d="M0 0 C7.81740407 4.65321671 13.53763953 11.09123517 16 20 C17.22072431 29.21771417 15.66778197 37.11454393 10.05859375 44.5859375 C4.79097682 50.73634106 4.79097682 50.73634106 1 52 C-6.62927028 47.57885383 -10.30805912 40.07582263 -13 32 C-13.82488565 22.99387138 -12.9145373 15.96945715 -7.24609375 8.7734375 C-6.05155377 7.40183628 -4.83336247 6.05024925 -3.5859375 4.7265625 C-1.81022679 2.88255126 -1.81022679 2.88255126 0 0 Z " fill="#E84542" transform="translate(258,367)"/>
<path d="M0 0 C2.53844738 2.12902039 2.87344691 3.1446018 3.3125 6.4375 C2.9375 9.625 2.9375 9.625 1.125 12.4375 C-2.84323748 15.16080023 -5.58080576 15.09103794 -10.28125 15.34375 C-16.18510905 15.94076945 -20.44075184 18.49609313 -24.3125 22.9375 C-27.76556528 27.86511748 -28.78845573 33.5429898 -30.0078125 39.33203125 C-31.1434536 42.87775512 -31.81452913 43.9274756 -35.0625 45.625 C-38.0625 46.125 -38.0625 46.125 -41.0625 45.625 C-43.74573734 43.50665473 -44.84833794 41.84004192 -45.4453125 38.453125 C-45.94008427 28.09590266 -41.55290884 18.51471717 -35.0625 10.625 C-26.41755339 1.73799488 -12.37279565 -5.55513274 0 0 Z " fill="#F9B044" transform="translate(361.0625,378.375)"/>
<path d="M0 0 C4.19874769 3.61986275 8.97942268 7.74649898 11 13 C10.88121951 16.44463409 10.6155744 18.93984409 8.875 21.9375 C5.76581435 23.69937187 3.49155423 23.48159369 0 23 C-2.4375 20.9375 -2.4375 20.9375 -5 18 C-6.35608576 16.72950545 -7.7323479 15.48030286 -9.125 14.25 C-9.78757812 13.65703125 -10.45015625 13.0640625 -11.1328125 12.453125 C-16.27942257 8.44781339 -23.84646787 9.47715086 -30 10 C-32.52639482 10.86640053 -34.74257645 11.92829589 -37.10546875 13.16015625 C-40.07048698 14.47454577 -42.01879705 14.10928482 -45 13 C-47.4375 11.375 -47.4375 11.375 -49 9 C-49.0625 5.5 -49.0625 5.5 -48 2 C-35.66561127 -10.68679984 -13.68359709 -9.63906485 0 0 Z " fill="#F9B044" transform="translate(419,229)"/>
<path d="M0 0 C2.60410883 2.4635114 2.99264978 3.94000634 3.43359375 7.5390625 C3.45692902 8.90084237 3.45721373 10.26316289 3.4375 11.625 C3.43137695 12.3370459 3.42525391 13.0490918 3.41894531 13.78271484 C3.24123269 19.81537499 1.93116635 24.68917595 -1 30 C-1.556875 31.03125 -2.11375 32.0625 -2.6875 33.125 C-9.90767389 42.1014324 -18.34924138 47.6896304 -29.9140625 49.44140625 C-33.83215656 49.62055214 -36.22511468 49.46124126 -39.625 47.4375 C-41.51879045 44.08032602 -41.48258091 41.79170715 -41 38 C-38.52075809 34.24385531 -34.27962379 33.81980006 -30.1875 32.75 C-22.49775323 30.52582314 -22.49775323 30.52582314 -16.96875 24.94140625 C-14.28726726 19.56762833 -12.96812183 14.68364873 -12.5625 8.6875 C-12.307605 5.26765873 -12.19459928 4.25737324 -10.0625 1.4375 C-6.29421776 -1.18887853 -4.48526091 -1.18996718 0 0 Z " fill="#F9B044" transform="translate(177,369)"/>
<path d="M0 0 C4.98669007 2.49334503 8.49675474 5.99350949 11 11 C11.80980094 17.51823377 10.92286213 21.73510608 7 27 C1.7036416 31.10737998 -2.29239971 32.55896669 -9 32 C-14.35955917 30.04191471 -17.22791831 27.01107074 -20 22 C-21.24266632 18.27200105 -21.52902513 14.87217006 -21 11 C-16.24453506 1.84132679 -9.87250061 -1.0935693 0 0 Z " fill="#E94642" transform="translate(357,300)"/>
<path d="M0 0 C4.48634774 2.47010975 6.95199456 5.79439683 8.875 10.5 C9.81327454 16.33815271 8.11385171 20.70941548 4.875 25.5 C0.05104291 29.97938873 -3.07837858 30.87177177 -9.51953125 30.76953125 C-13.48884965 30.35891211 -16.21350241 29.24159587 -19.125 26.5 C-22.58184162 21.95584322 -23.79464659 17.27378175 -23.51171875 11.60546875 C-22.4905191 6.04560401 -18.58600888 2.58839076 -14.125 -0.5 C-9.1250025 -2.16666583 -4.83845913 -2.07623861 0 0 Z " fill="#E94642" transform="translate(292.125,71.5)"/>
<path d="M0 0 C2.475 1.98 2.475 1.98 5 4 C3.56695339 8.24520798 1.46122286 11.11589261 -1.375 14.5625 C-36.18047542 58.5056961 -44.63520897 110.71349504 -46 165 C-46.33 165 -46.66 165 -47 165 C-47.7624967 114.97630617 -47.7624967 114.97630617 -42.9609375 100.96875 C-42.12569512 98.3883264 -41.77220057 96.35709627 -41.5234375 93.6875 C-41.06876389 88.94618741 -39.95595615 84.56327822 -38.625 80 C-38.41617188 79.2575 -38.20734375 78.515 -37.9921875 77.75 C-35.57932202 69.27554564 -32.74921701 61.0517581 -29.3125 52.9375 C-28.96437256 52.11531982 -28.61624512 51.29313965 -28.25756836 50.44604492 C-20.67323192 32.75835586 -11.84373016 15.23226332 0 0 Z " fill="#545757" transform="translate(78,108)"/>
<path d="M0 0 C2.55078958 2.22165544 2.93332671 3.60829443 3.5 6.9375 C3 10 3 10 0.9375 12.9375 C-2 15 -2 15 -5.625 15 C-10.61768902 13.52068474 -10.61768902 13.52068474 -12 11 C-12.39309578 7.90437069 -12.62338668 5.95663395 -12 3 C-8.38525112 -1.49105164 -5.37641793 -1.59301272 0 0 Z " fill="#EBF1F6" transform="translate(256,201)"/>
<path d="M0 0 C3.375 1.0625 3.375 1.0625 5.3125 2.75 C6.7363395 5.8489448 6.92653827 7.68432812 6.375 11.0625 C4.3125 14 4.3125 14 1.375 16.0625 C-2.47710127 16.12891554 -4.62348005 15.93479157 -7.5625 13.375 C-8.9863395 10.2760552 -9.17653827 8.44067188 -8.625 5.0625 C-5.92665364 1.21940065 -4.75860157 0.08204485 0 0 Z " fill="#EBF1F7" transform="translate(315.625,263.9375)"/>
<path d="M0 0 C2.9375 2.0625 2.9375 2.0625 5 5 C5.06641554 8.85210127 4.87229157 10.99848005 2.3125 13.9375 C-0.7864448 15.3613395 -2.62182812 15.55153827 -6 15 C-8.9375 12.9375 -8.9375 12.9375 -11 10 C-11.06641554 6.14789873 -10.87229157 4.00151995 -8.3125 1.0625 C-5.2135552 -0.3613395 -3.37817188 -0.55153827 0 0 Z " fill="#EBF1F7" transform="translate(355,260)"/>
<path d="M0 0 C4.93731454 1.46290801 4.93731454 1.46290801 6.375 4 C6.875 7.375 6.875 7.375 6.375 11 C4.08908345 14.06965937 2.61997671 15.68875582 -1.125 16.625 C-4.83364386 15.69783903 -6.33485284 14.0099077 -8.625 11 C-9.25 8 -9.25 8 -8.625 5 C-5.91953265 1.14675862 -4.77773264 0 0 0 Z " fill="#EBF1F7" transform="translate(203.625,88)"/>
<path d="M0 0 C4.07390532 1.33327811 5.42613937 2.35369882 7.4375 6.125 C7.51904726 10.12081592 6.94255321 11.59188828 4.1875 14.5 C1.11309638 16.31669305 -0.09089394 16.99290152 -3.5625 16.125 C-6.39154349 13.42169177 -8.25045221 11.40439595 -9.1875 7.5625 C-7.88670066 2.48938257 -5.17826824 0.18169362 0 0 Z " fill="#EBF1F6" transform="translate(96.5625,231.875)"/>
<path d="M0 0 C3.80185823 1.08624521 5.38912969 1.65778867 7.5 5 C7.57635097 9.27565406 7.14385417 11.26416666 4.3125 14.5 C1.5 16 1.5 16 -1.5625 16.0625 C-5.28456393 14.71622156 -6.58197413 13.45244657 -8.5 10 C-8.5 6.39040487 -7.87164354 4.55746532 -5.875 1.5625 C-3.5 0 -3.5 0 0 0 Z " fill="#EBF1F6" transform="translate(352.5,88)"/>
<path d="M0 0 C3.42641601 1.16643949 4.94029949 1.96425523 6.9375 5 C7.01423554 9.29719036 6.62317568 11.25718468 3.6875 14.4375 C0.61197294 16.18495855 -0.62144843 16.86026289 -4.0625 16 C-6.9375 13.375 -6.9375 13.375 -9.0625 10 C-9.22352387 5.97440332 -8.56106017 4.55553847 -5.875 1.5625 C-3.0625 0 -3.0625 0 0 0 Z " fill="#EBF1F7" transform="translate(289.0625,328)"/>
<path d="M0 0 C2.9375 2.0625 2.9375 2.0625 5 5 C5.1519185 9.32967714 4.67311337 11.23072758 1.8125 14.5 C-1 16 -1 16 -4.125 15.9375 C-8.55190311 14.49394464 -8.55190311 14.49394464 -10 12 C-10.75912409 5.16788321 -10.75912409 5.16788321 -8.375 1.5 C-5.23686002 -0.48198314 -3.65126535 -0.67064058 0 0 Z " fill="#EBF1F7" transform="translate(425,308)"/>
<path d="M0 0 C2.4375 1.5625 2.4375 1.5625 4 4 C4.56288002 7.94016013 4.60396028 10.05782196 2.4375 13.4375 C-0.96719488 15.61999672 -3.03430012 15.63734462 -7 15 C-9.5 12.9375 -9.5 12.9375 -11 10 C-10.93977486 6.50694211 -10.63658168 4.09633511 -8.875 1.0625 C-5.81547541 -0.6712306 -3.43182475 -0.42145216 0 0 Z " fill="#EBF1F9" transform="translate(396,356)"/>
<path d="M0 0 C2.4375 1.625 2.4375 1.625 4 4 C4.4842732 7.32073048 4.33817538 9.26397123 2.9375 12.3125 C-0.00151995 14.87229157 -2.14789873 15.06641554 -6 15 C-9.46194162 12.56927503 -10.79395747 11.12178713 -11.5625 6.9375 C-11 4 -11 4 -9.4375 1.625 C-6.06489221 -0.62340519 -3.97487617 -0.56783945 0 0 Z " fill="#EBF2FB" transform="translate(76,269)"/>
<path d="M0 0 C2.9375 2.0625 2.9375 2.0625 5 5 C5 8.51955419 4.63108355 10.84920059 2.9375 13.9375 C-0.25902171 15.69043126 -3.44932174 15.51780725 -7 15 C-9 14 -9 14 -10 12 C-10.75912409 5.16788321 -10.75912409 5.16788321 -8.375 1.5 C-5.23686002 -0.48198314 -3.65126535 -0.67064058 0 0 Z " fill="#EBF1F9" transform="translate(403,170)"/>
</svg>
